<?xml version="1.0" encoding="UTF-8"?>
<svg id="Layer_1" data-name="Layer 1" xmlns="http://www.w3.org/2000/svg" viewBox="0 0 841.89 595.28">
  <defs>
    <style>
      .cls-1 {
        stroke: #231f20;
      }

      .cls-1, .cls-2 {
        stroke-width: .17px;
      }

      .cls-1, .cls-2, .cls-3, .cls-4 {
        stroke-miterlimit: 2.61;
      }

      .cls-1, .cls-2, .cls-3, .cls-4, .cls-5 {
        fill: none;
      }

      .cls-2, .cls-3, .cls-4, .cls-5 {
        stroke: #fff;
      }

      .cls-6, .cls-7 {
        fill: #fff;
      }

      .cls-7, .cls-8 {
        fill-rule: evenodd;
      }

      .cls-3 {
        stroke-width: .4px;
      }

      .cls-9 {
        fill: #e63428;
      }

      .cls-8 {
        fill: #231f20;
      }

      .cls-4 {
        stroke-width: .18px;
      }

      .cls-5 {
        stroke-linejoin: round;
        stroke-width: .04px;
      }

      .cls-10 {
        font-family: Metropolis-Black, Metropolis;
        font-size: 26.12px;
        font-weight: 800;
      }
    </style>
  </defs>
  <text class="cls-10" transform="translate(216.53 218.48)"><tspan x="0" y="0">ALL-AFRICA STUDENTS UNION</tspan></text>
  <text class="cls-10" transform="translate(216.53 255.31)"><tspan x="0" y="0">UNION PANAFRICAINE DES ETUDIANTS</tspan></text>
  <text class="cls-10" transform="translate(216.53 300.85)"><tspan x="0" y="0">UNIÃO DOS ESTUDANTES DE TODA A ÁFRICA</tspan></text>
  <path d="M708.69,341.97c0,1.63-.3,3.21-.9,4.74-.31.81-.98,2.11-2.01,3.88l-.55-.3c.07-.59.14-1.27.19-2.06.05-.77.08-1.29.08-1.56,0-2.12-.17-5.08-.5-8.88-.34-3.8-.74-7.76-1.21-11.91-.29-2.5-.6-5.06-.95-7.67.41-.9.88-1.86,1.4-2.9.52-1.03,1.01-2,1.48-2.92.32,2.32.74,5.5,1.24,9.53.5,4.04.9,7.67,1.18,10.92.37,4.03.55,7.08.55,9.13M691.21,322.35l-2.26,4.38-5-2.6,2.36-4.41,4.9,2.63ZM698.16,319.53l-2.25,4.45-5.01-2.57,2.32-4.45,4.95,2.57ZM698.35,349.78h-17.41v-5.32h15.22c0-2.4-.29-4.23-.87-5.49-.39-.88-1.35-2.13-2.89-3.78l2.41-5.01c1.45,1.86,2.36,3.3,2.72,4.34.54,1.57.81,4.16.81,7.8v7.46ZM683.08,349.78h-35.32v-5.32h24.92c-2.08-1.62-3.83-2.87-5.26-3.77-1.77-1.13-3.39-1.94-4.86-2.45-1.65-.57-3.32-.86-5.01-.86-1.04,0-2.09.07-3.15.22.59-1.5,1.37-2.71,2.33-3.62,1.38-1.32,3.13-1.98,5.26-1.98s4.53,1.02,7.37,3.06c1.4,1.01,3.69,2.95,6.88,5.8,2.46,2.21,4.13,3.41,5.01,3.6h1.84v5.32ZM649.92,349.78h-4.3c-1.4,0-2.52-.56-3.35-1.68-.74-.98-1.3-2.43-1.68-4.37-.38-1.93-.67-4.31-.88-7.15-.13-2.3-.25-4.65-.39-7.09-.12-2.42-.3-4.26-.51-5.51-.22-1.25-.51-2.27-.88-3.07-.44-.98-1.06-1.84-1.86-2.57l3.73-5.95c.81,2.44,1.39,5.36,1.72,8.77.21,2.13.42,7.14.63,15.04.37,3.63.9,5.95,1.6,6.97.57.86,1.2,1.28,1.87,1.28h4.3v5.32ZM635.5,349.78h-13.66c-1.16,0-2.2-.33-3.13-1.01-.92-.67-1.39-1.46-1.39-2.38,0-.77.04-1.47.13-2.11.08-.63.24-1.32.46-2.08h.63c.23.84.64,1.43,1.22,1.8.49.3,1.17.46,2.02.46h11.85c0-3.65-.51-6.59-1.53-8.81-1.27-2.77-3.39-4.61-6.36-5.53l.47-5.95c3.54,1.73,6.04,4.5,7.51,8.3,1.19,3.06,1.78,7.05,1.78,11.99v5.32ZM592.21,342.1c0-1.03-.53-1.82-1.61-2.36-1.06-.53-2.6-.8-4.6-.8-1.48,0-3.19.32-5.13.97-1.59.53-3.28,1.26-5.07,2.19-1.32.69-2.69,1.47-4.09,2.35h13.3c4.81,0,7.21-.78,7.21-2.35ZM597.03,349.78h-38.57v-5.32l4.69-.03c1.39,0,2.69-.18,3.89-.54,1.39-.43,2.96-1.18,4.73-2.25.37-.9.66-1.87.89-2.89.22-1.03.33-2.02.33-2.98,0-2.18-.2-4.58-.61-7.21-.3-1.92-.76-4.16-1.38-6.75-.32-1.35-.74-2.99-1.27-4.93l-1.88-.95c.15-1.22.35-2.41.63-3.55.28-1.15.67-2.24,1.16-3.31.32.96,1.06,1.7,2.21,2.23.95.43,2.17.71,3.64.86-.2,2.1-.35,3.44-.46,4.01-.1.57-.29,1.28-.58,2.12-.14-.02-.51-.12-1.13-.3l-.4-.12c.73,2.39,1.34,4.83,1.81,7.36.47,2.52.7,4.63.7,6.35,0,1.44-.15,3.06-.44,4.83-.1.63-.29,1.61-.56,2.93,3.56-2.07,5.83-3.33,6.84-3.8,3.01-1.43,5.59-2.14,7.74-2.14,2.74,0,4.8.8,6.17,2.41,1.24,1.47,1.86,3.56,1.86,6.26v7.73ZM560.61,349.78h-1.88c-1.72,0-3.1-.93-4.15-2.78-1.24-2.23-1.87-5.62-1.87-10.16,0-.32-.04-.76-.11-1.32-.07-.54-.1-.89-.1-1.03-1.95,5.43-3.69,9.15-5.22,11.17-1.81,2.36-4.35,3.92-7.65,4.7-2.81.66-7.58.98-14.33.98v-.88c5.47-1.65,9.54-3.07,12.22-4.27,4.32-1.92,7.61-4.12,9.84-6.63,2.7-3.01,4.05-6.57,4.05-10.71,0-1.99-.13-3.86-.38-5.58-.25-1.73-.6-3.51-1.03-5.31l1-2.59c.41-1,.78-1.85,1.13-2.55.53,2.93,1.04,6.11,1.51,9.5.33,2.35.65,4.86.96,7.56.39,3.3.73,5.95,1.01,7.97.37,2.57.92,4.39,1.66,5.5.49.73.98,1.1,1.47,1.1h1.87v5.32ZM547.91,333.77c0,.41-.02.75-.06,1.03-.04.29-.14.65-.3,1.08-1.14-2.55-2.83-5.17-5.07-7.88-2.48-2.98-4.44-4.49-5.85-4.49-.31,0-.62.27-.92.8-.3.53-.66.79-1.06.79-.55,0-1.42-.35-2.6-1.08-1.48-.9-2.68-1.94-3.57-3.12-1.2-1.6-1.81-3.29-1.81-5.08,0-1.28.42-1.93,1.25-1.93,1.46,0,3.76.93,6.87,2.79,3.49,2.06,6.41,4.46,8.77,7.21,2.91,3.36,4.36,6.65,4.36,9.87ZM505.35,357.19l-2.36,4.42-4.9-2.56,2.24-4.46,5.02,2.59ZM522.95,349.78h-29.17c-3.91,0-7.02-.68-9.35-2.05-2.91-1.72-4.37-4.39-4.37-8.05,0-1.9.43-3.84,1.28-5.81.3-.72,1.03-2.08,2.19-4.07l.91.58c-.45.94-.89,1.87-1.3,2.81-.6,1.45-.89,2.75-.89,3.89,0,2.4,1.26,4.27,3.79,5.59,2.27,1.18,5.12,1.77,8.59,1.77h25.88v-.82c0-2.29-.27-4.14-.82-5.57-.55-1.44-1.48-2.66-2.81-3.68l2.35-5.01c.91,1.12,1.45,1.83,1.63,2.11,1.4,2.29,2.1,5.62,2.1,9.98v8.33ZM457.41,340.19l-2.11,5.57c-3.08,1.13-6.64,2.08-10.68,2.85-4.05.77-7.77,1.16-11.17,1.16h-7.61v-5.32h7.33c-.6-.96-1.08-2.05-1.45-3.26-.37-1.21-.55-2.39-.55-3.53,0-2.4,1-4.43,3.01-6.05,2.01-1.63,4.59-2.44,7.75-2.44,2.5,0,4.57.61,6.2,1.83.7.51,1.87,1.75,3.52,3.75l-.58.5c-1.4-.38-2.66-.66-3.78-.85-1.12-.19-2.28-.28-3.48-.28-2.81,0-5.01.31-6.61.93-1.6.63-2.4,1.44-2.4,2.46s.5,2.11,1.51,3.34c1,1.23,2.3,2.33,3.89,3.29,3.34-.51,6.07-1.01,8.21-1.49,2.14-.49,5.13-1.3,8.99-2.45ZM424.47,343.74c-.26-1.19-.67-2.36-1.22-3.51-.47-.97-1.1-1.96-1.87-2.98-.97.25-1.79.71-2.46,1.39-.45.43-.98,1.16-1.59,2.18.73.8,1.76,1.51,3.1,2.15,1.32.64,2.59,1.02,3.77,1.17l.27-.4ZM427.98,349.78h-3.17c-1.37,0-2.9-.31-4.61-.93-1.97-.71-3.7-1.7-5.22-2.95-1.18,1.46-2.39,2.47-3.62,3.04-1.23.56-3.04.85-5.41.85h-4.77v-5.32h4.68c1.86,0,3.51-.47,4.95-1.41,1.13-.74,2.14-1.76,3.06-3.1,1.24-1.8,2.78-3.36,4.59-4.69,1.63-1.18,3.12-1.94,4.49-2.27,1.41,2.14,2.53,4.07,3.36,5.79,1.12,2.33,1.68,4.22,1.68,5.66v5.33ZM401.35,344.52c-.45-1.97-.99-3.33-1.63-4.09-.54-.66-1.22-.98-2.01-.98-.57,0-1.08.19-1.49.56-.42.39-.63.86-.63,1.43,0,1.01.45,1.77,1.35,2.3.9.52,2.37.78,4.42.78ZM403.29,347.88c0,3.38-1.24,6.74-3.74,10.08-2.77,3.73-5.97,5.59-9.6,5.59-1.35,0-2.73-.16-4.16-.46-1.04-.22-2.4-.61-4.07-1.15-1.32-.47-2.65-.92-3.98-1.37l.52-1.08c1.14.26,2.34.54,3.59.85,1.25.3,2.38.45,3.38.45,2.48,0,4.84-.64,7.07-1.91,1.73-1.01,3.47-2.47,5.2-4.38.88-.97,2.12-2.55,3.73-4.73-2.76,0-4.82-.44-6.19-1.33-1.56-1-2.33-2.65-2.33-4.95,0-2.11.49-4.07,1.47-5.88,1.15-2.09,2.6-3.13,4.35-3.13s3.06,1.03,3.84,3.11c.62,1.62.92,3.87.92,6.76v3.51ZM376.25,349.78h-3.64c-3.39,0-6.36.31-8.89.95-3.2.79-4.81,1.93-4.81,3.42,0,1.35.23,2.79.69,4.31.46,1.53.93,3.08,1.41,4.64.48,1.58.72,3.01.72,4.32,0,.77-.05,1.47-.17,2.11-.11.63-.32,1.45-.62,2.47-.52-1.69-1.04-3.38-1.54-5.07-.97-3.22-1.69-5.66-2.15-7.32-.73-2.61-1.1-4.17-1.1-4.71,0-2.61.54-4.61,1.64-6.01,1.09-1.39,2.77-2.43,5.03-3.1,1.8-.53,4.5-.98,8.11-1.35-1.28-1.32-2.09-2.1-2.39-2.34-1.04-.83-2.1-1.23-3.16-1.23-.68,0-1.32.21-1.93.62-.5.33-1.09.9-1.78,1.7l-1.38-.9c.62-1.52,1.3-2.75,2.08-3.66,1.28-1.51,2.81-2.27,4.56-2.27,1.26,0,2.52.47,3.79,1.41,1.04.77,2.11,1.86,3.18,3.25.53.67,1.31,1.82,2.36,3.42v5.32ZM334.68,360.46c0,.52-.31.98-.95,1.39-.43.27-1.08.55-1.93.86l-5.7,1.97c0-.95,1.03-1.77,3.09-2.49-.64-.33-1.12-.65-1.44-.95-.43-.4-.65-.8-.65-1.23,0-.64.54-1.53,1.63-2.68,1.21-1.27,2.28-1.91,3.19-1.91.41,0,.76.14,1.05.42.3.28.45.65.45,1.11,0,.29-.06.58-.19.89-.11.29-.29.64-.52,1-.63-.56-1.31-.85-2.06-.85-.45,0-.9.09-1.34.27-.44.19-.66.4-.66.64,0,.3.47.72,1.42,1.24.95.53,1.75.79,2.42.79.45,0,.77-.01.97-.04.19-.03.59-.17,1.2-.42ZM335.06,341.97c0,1.63-.3,3.21-.9,4.74-.31.81-.98,2.11-2.01,3.88l-.55-.3c.07-.59.14-1.27.19-2.06.05-.77.08-1.29.08-1.56,0-2.12-.17-5.08-.5-8.88-.34-3.8-.74-7.76-1.21-11.91-.29-2.5-.61-5.06-.95-7.67.41-.9.88-1.86,1.4-2.9.52-1.03,1.01-2,1.48-2.92.32,2.32.74,5.5,1.24,9.53.5,4.04.9,7.67,1.18,10.92.37,4.03.55,7.08.55,9.13ZM320.63,315.86l-2.36,4.43-4.91-2.56,2.24-4.46,5.02,2.59ZM319.75,333.87c-.28-.74-.74-1.48-1.37-2.23-.86-1.01-1.67-1.52-2.44-1.52-.54,0-1,.23-1.36.69-.36.46-.53,1-.53,1.63,0,1.63.9,2.44,2.68,2.44.47,0,.97-.09,1.49-.27.53-.19,1.03-.43,1.52-.73ZM324.76,349.78h-18.91v-5.32h16.28c0-1.82-.21-3.52-.64-5.11-1.05.35-1.87.59-2.43.74-.94.24-1.76.37-2.47.37-1.47,0-2.68-.38-3.61-1.13-1.07-.86-1.62-2.09-1.62-3.69,0-2.83.51-5.3,1.52-7.42,1.14-2.36,2.63-3.54,4.46-3.54,2.48,0,4.39,1.94,5.74,5.83,1.12,3.21,1.68,6.99,1.68,11.33v7.94ZM307.99,349.76c0,2.24-.96,4.57-2.88,6.98-1.67,2.12-3.75,3.94-6.24,5.48-2.36,1.47-4.31,2.2-5.84,2.2-1.41,0-2.92-.21-4.56-.62-1.24-.3-2.73-.79-4.47-1.45-1.46-.55-2.92-1.11-4.37-1.66l.52-1.22c1.35.27,2.74.54,4.21.82,1.46.28,2.79.43,3.97.43,2.61,0,5.33-.83,8.17-2.5,2.58-1.53,4.77-3.46,6.59-5.8,1.82-2.34,2.72-4.44,2.72-6.31,0-1.62-.47-3.31-1.4-5.08-.75-1.43-1.82-2.89-3.17-4.4l1.72-4.82c1.67,1.55,2.9,3.1,3.69,4.65.9,1.75,1.35,3.72,1.35,5.88v7.43ZM270.09,358.6l-2.26,4.38-5-2.6,2.36-4.41,4.91,2.63ZM277.04,355.79l-2.25,4.45-5.01-2.57,2.32-4.45,4.95,2.57ZM277.36,349.78h-17.41v-5.32h15.22c0-2.4-.29-4.23-.87-5.49-.39-.88-1.35-2.13-2.89-3.78l2.41-5.01c1.45,1.86,2.36,3.3,2.72,4.34.54,1.57.81,4.16.81,7.8v7.46ZM259.34,339.13c-.47-1.64-.92-2.85-1.35-3.65-.83-1.53-1.85-2.3-3.03-2.3-.56,0-1.05.23-1.46.68-.41.45-.62.98-.62,1.59,0,1.55.8,2.6,2.41,3.13.57.19,1.92.37,4.04.55ZM262.1,349.78h-18.6v-5.32h10.49c1.26,0,2.34-.04,3.23-.14.89-.09,1.86-.29,2.89-.6-3.51-.51-5.78-.98-6.83-1.43-2.35-1.02-3.52-2.74-3.52-5.19,0-2.14.56-4.15,1.68-6.04,1.27-2.14,2.81-3.2,4.62-3.2,2.09,0,3.66,1.33,4.75,3.97.86,2.1,1.28,4.57,1.28,7.42v10.53ZM253.77,317.56l-2.42,4.16-3.78-2.47,2.55-4.1,3.65,2.41ZM260.78,315.74l-2.61,4.1-3.84-2.5,2.64-4.07,3.81,2.47ZM238.35,358.6l-2.26,4.38-5-2.6,2.36-4.41,4.9,2.63ZM245.3,355.79l-2.25,4.45-5.01-2.57,2.32-4.45,4.95,2.57ZM245.62,349.78h-17.41v-5.32h15.22c0-2.4-.29-4.23-.87-5.49-.39-.88-1.35-2.13-2.89-3.78l2.41-5.01c1.45,1.86,2.36,3.3,2.72,4.34.54,1.57.81,4.16.81,7.8v7.46ZM230.37,349.78h-4.3c-1.4,0-2.52-.56-3.35-1.68-.74-.98-1.3-2.43-1.68-4.37-.38-1.93-.67-4.31-.88-7.15-.13-2.3-.25-4.65-.39-7.09-.12-2.42-.3-4.26-.51-5.51-.22-1.25-.51-2.27-.88-3.07-.44-.98-1.06-1.84-1.86-2.57l3.73-5.95c.81,2.44,1.39,5.36,1.72,8.77.21,2.13.42,7.14.63,15.04.37,3.63.9,5.95,1.6,6.97.57.86,1.2,1.28,1.87,1.28h4.3v5.32Z"/>
  <rect class="cls-1" x="63.87" y="196.17" width="130.38" height="166.9"/>
  <rect x="63.87" y="196.16" width="130.38" height="166.9"/>
  <rect class="cls-4" x="68.54" y="199.01" width="121.03" height="121.98"/>
  <rect class="cls-6" x="68.55" y="199.01" width="121.03" height="121.98"/>
  <rect class="cls-9" x="71.41" y="201.9" width="115.29" height="116.2"/>
  <path class="cls-3" d="M129.06,212.98c25.97,0,47.02,21.05,47.02,47.02s-21.05,47.02-47.02,47.02-47.02-21.05-47.02-47.02,21.05-47.02,47.02-47.02Z"/>
  <path class="cls-7" d="M129.06,212.97c25.97,0,47.02,21.05,47.02,47.02s-21.05,47.02-47.02,47.02-47.02-21.05-47.02-47.02,21.05-47.02,47.02-47.02"/>
  <path class="cls-2" d="M188.29,340.06v-15.48h-6.03v15.71c0,4.35-2.23,6.58-5.92,6.58s-5.92-2.31-5.92-6.78v-15.52h-6.03v15.67c0,8.07,4.51,12.19,11.87,12.19s12.03-4.08,12.03-12.38ZM156.94,343.9v-.08c0-4.78-3.13-6.78-8.7-8.23-4.74-1.21-5.92-1.8-5.92-3.6v-.08c0-1.33,1.21-2.39,3.53-2.39s4.7,1.02,7.13,2.7l3.13-4.55c-2.78-2.23-6.19-3.49-10.19-3.49-5.6,0-9.6,3.29-9.6,8.27v.08c0,5.45,3.57,6.97,9.09,8.38,4.58,1.18,5.52,1.96,5.52,3.49v.08c0,1.61-1.49,2.59-3.96,2.59-3.14,0-5.72-1.29-8.19-3.33l-3.57,4.27c3.29,2.94,7.48,4.39,11.64,4.39,5.92,0,10.07-3.06,10.07-8.5ZM119.67,340.54h-7.29l3.64-8.89,3.64,8.89ZM130.64,352.01l-11.75-27.62h-5.56l-11.75,27.62h6.15l2.51-6.15h11.6l2.51,6.15h6.31ZM86.87,340.54h-7.29l3.64-8.89,3.64,8.89ZM97.84,352.01l-11.75-27.62h-5.56l-11.75,27.62h6.15l2.51-6.15h11.6l2.51,6.15h6.31Z"/>
  <path class="cls-6" d="M188.29,340.06v-15.48h-6.03v15.71c0,4.35-2.23,6.58-5.92,6.58s-5.92-2.31-5.92-6.78v-15.51h-6.03v15.67c0,8.07,4.51,12.19,11.87,12.19s12.03-4.08,12.03-12.38M156.94,343.9v-.08c0-4.78-3.13-6.78-8.7-8.23-4.74-1.21-5.92-1.8-5.92-3.6v-.08c0-1.33,1.21-2.39,3.53-2.39s4.7,1.02,7.13,2.7l3.13-4.55c-2.78-2.23-6.19-3.49-10.19-3.49-5.6,0-9.6,3.29-9.6,8.27v.08c0,5.45,3.57,6.97,9.09,8.38,4.58,1.18,5.52,1.96,5.52,3.49v.08c0,1.61-1.49,2.59-3.96,2.59-3.14,0-5.72-1.29-8.19-3.33l-3.57,4.27c3.29,2.94,7.48,4.39,11.64,4.39,5.92,0,10.07-3.06,10.07-8.5ZM119.67,340.53h-7.29l3.64-8.89,3.64,8.89ZM130.64,352.01l-11.75-27.62h-5.56l-11.75,27.62h6.15l2.51-6.15h11.6l2.51,6.15h6.31ZM86.87,340.53h-7.29l3.64-8.89,3.64,8.89ZM97.84,352.01l-11.75-27.62h-5.56l-11.75,27.62h6.15l2.51-6.15h11.6l2.51,6.15h6.31Z"/>
  <path class="cls-6" d="M146.32,357.66c0-.25-.12-.37-.36-.37-.51,0-.87.5-1.07,1.5.45-.08.8-.23,1.06-.42.25-.2.38-.43.38-.71ZM146.88,357.55c0,.32-.15.59-.46.82-.31.22-.79.41-1.45.57l-.11.02c-.02.08-.04.17-.05.26,0,.09-.01.21-.01.34,0,.23.05.4.14.52.09.12.23.18.42.18.11,0,.24-.02.36-.06.13-.04.25-.1.36-.17l.4-.26.07-.05.06.14c-.57.5-1.08.75-1.53.75-.27,0-.48-.08-.63-.23-.15-.15-.22-.37-.22-.65,0-.14,0-.29.03-.45s.07-.38.14-.66c.07-.28.16-.5.25-.64.16-.27.41-.51.75-.7.34-.2.63-.29.87-.29.19,0,.34.05.45.15.11.1.16.24.16.42ZM143.81,359.94c-.24.21-.47.37-.67.5-.21.13-.36.19-.46.19-.07,0-.13-.03-.18-.08-.05-.06-.07-.12-.07-.2l.04-.15.53-2.29.04-.16.02-.15c0-.07-.03-.1-.1-.1-.1,0-.23.05-.39.14-.16.09-.34.25-.56.47-.22.22-.39.49-.54.83-.14.34-.26.83-.37,1.47v.1s-.53.13-.53.13v-.1s0-.07,0-.07l.22-1,.05-.25.17-.8.08-.5.02-.27c0-.1-.03-.16-.09-.16-.11,0-.24.05-.41.16-.16.11-.33.26-.5.46-.17.2-.32.43-.44.69-.12.26-.22.58-.29.94l-.13.66v.09s-.53.13-.53.13l-.06-.08.03-.1.28-1.09.16-.71c.05-.22.07-.37.07-.44l.03-.33v-.21c.01-.11-.02-.16-.1-.16-.05.01-.08.03-.1.04l-.39.22-.09.05-.07-.15.09-.06.49-.33c.15-.1.28-.18.38-.23.1-.05.18-.07.24-.07.05,0,.09.03.12.08.03.05.05.12.05.2v.06l-.02.09-.13.71-.06.25-.02.09.06-.08.2-.26.16-.17.19-.2c.08-.1.21-.21.39-.34.17-.13.31-.21.41-.26.1-.05.19-.09.27-.11.08-.02.15-.04.23-.04.12,0,.19.07.19.22,0,.06-.01.15-.04.26l-.19.92-.02.11c.19-.27.34-.47.46-.6.12-.13.28-.27.48-.41.2-.15.4-.27.59-.36.19-.09.35-.14.47-.14.06,0,.12.02.16.06.04.04.06.09.06.16l-.02.15-.61,2.59v.1s0,.07,0,.07l.12.02s.09-.02.15-.06c.07-.04.17-.11.31-.21l.09-.07.07.16ZM137.64,357.66c0-.25-.12-.37-.36-.37-.51,0-.87.5-1.07,1.5.45-.08.8-.23,1.06-.42.25-.2.38-.43.38-.71ZM138.2,357.55c0,.32-.15.59-.46.82-.31.22-.79.41-1.45.57l-.11.02c-.03.08-.04.17-.05.26,0,.09-.01.21-.01.34,0,.23.05.4.14.52.09.12.23.18.42.18.11,0,.24-.02.36-.06.13-.04.25-.1.36-.17l.4-.26.07-.05.06.14c-.57.5-1.08.75-1.53.75-.27,0-.48-.08-.63-.23-.15-.15-.22-.37-.22-.65,0-.14,0-.29.03-.45s.07-.38.14-.66c.07-.28.16-.5.25-.64.16-.27.41-.51.75-.7.34-.2.63-.29.87-.29.19,0,.34.05.45.15.11.1.16.24.16.42ZM135.27,357.67c0,.47-.16.98-.48,1.55-.32.57-.63.94-.92,1.12-.29.18-.55.27-.75.27-.24,0-.43-.09-.59-.27s-.23-.41-.23-.7c0-.45.09-.82.28-1.13.19-.31.32-.51.39-.61.08-.1.22-.27.44-.51h-.12s-.2.04-.2.04h-.75s-.07.02-.1.07l-.17.33-.06.1h-.16l.31-.88c.09-.03.18-.04.27-.04h.13s.92.04.92.04c.07,0,.17-.02.29-.07l.07.12-.06.07c-.63.8-.95,1.56-.95,2.26,0,.25.05.44.15.58.1.14.24.21.41.21.36,0,.68-.25.96-.74.28-.49.43-1,.43-1.53,0-.32-.1-.47-.31-.47-.05,0-.12.02-.21.06l-.09-.14.07-.06c.18-.19.3-.3.35-.33.05-.02.11-.04.19-.04.14,0,.26.06.35.19.09.12.13.29.13.5ZM130.87,358.23c0-.65-.22-.98-.66-.98h-.03c-.14,0-.28.04-.39.12-.12.08-.23.2-.32.37-.09.17-.17.41-.25.74-.07.33-.11.63-.11.92,0,.63.22.95.67.95.5,0,.8-.3.92-.91.11-.61.17-1.01.17-1.21ZM131.45,358.11c0,.68-.19,1.28-.58,1.77-.38.5-.84.75-1.37.75-.17,0-.33-.04-.48-.12-.15-.08-.27-.19-.36-.35-.09-.15-.13-.4-.13-.74,0-.67.18-1.24.55-1.72.36-.48.81-.71,1.34-.71h.05c.32,0,.57.09.74.28.17.19.25.47.25.83ZM128.1,359.94c-.24.21-.47.37-.67.5-.21.13-.36.19-.47.19-.07,0-.13-.03-.18-.08-.05-.06-.07-.12-.07-.2l.04-.15.53-2.29.04-.16.02-.15c0-.07-.03-.1-.1-.1-.1,0-.23.05-.39.14-.16.09-.34.25-.56.47-.22.22-.39.49-.54.83-.14.34-.26.83-.37,1.47l-.02.1-.51.13v-.1s0-.07,0-.07l.22-1,.05-.25.17-.8.08-.5.02-.27c0-.1-.03-.16-.09-.16-.11,0-.24.05-.41.16-.16.11-.33.26-.5.46-.17.2-.32.43-.44.69-.12.26-.22.58-.29.94l-.13.66v.09s-.53.13-.53.13l-.06-.08.03-.1.28-1.09.16-.71c.05-.22.07-.37.07-.44l.03-.33v-.21c.01-.11-.02-.16-.1-.16-.04.01-.08.03-.1.04l-.39.22-.09.05-.07-.15.09-.06.49-.33c.15-.1.28-.18.38-.23.1-.05.18-.07.24-.07.05,0,.09.03.12.08.03.05.05.12.05.2v.15s-.14.71-.14.71l-.06.25-.02.09.06-.08.2-.26.16-.17.19-.2c.08-.1.21-.21.39-.34.17-.13.31-.21.41-.26.1-.05.19-.09.27-.11.08-.02.15-.04.23-.04.12,0,.19.07.19.22,0,.06-.01.15-.04.26l-.19.92-.02.11c.19-.27.34-.47.46-.6.12-.13.28-.27.48-.41.2-.15.4-.27.59-.36.19-.09.35-.14.47-.14.06,0,.12.02.16.06.04.04.06.09.06.16l-.02.15-.61,2.59-.02.1.02.07.12.02s.09-.02.15-.06c.07-.04.17-.11.31-.21l.09-.07.07.16ZM120.42,357.18l-.14.84h-.18v-.36c0-.09-.07-.18-.22-.25-.14-.07-.3-.11-.48-.11-.22,0-.4.06-.54.19-.14.13-.21.28-.21.47,0,.27.15.43.45.49l.51.1c.49.09.74.33.74.72,0,.19-.04.35-.11.48-.07.13-.25.3-.54.54-.29.23-.61.35-.96.35-.16,0-.29-.01-.38-.04-.1-.02-.24-.08-.42-.16l.07-.27.04-.23.02-.08.04-.31v-.09h.19v.63c.21.18.44.27.71.27s.46-.08.61-.23c.16-.15.23-.35.23-.58,0-.15-.04-.27-.11-.34-.07-.07-.27-.13-.57-.19-.31-.05-.54-.14-.7-.25-.16-.12-.24-.3-.24-.54,0-.26.14-.53.43-.8.29-.28.64-.42,1.06-.42.13,0,.24.01.35.04.1.02.23.07.38.15ZM117.68,357.29l-.08.37h-.8v.1s-.25,1.13-.25,1.13c-.04.23-.08.5-.11.8l-.02.25v.07c0,.08.03.12.1.12.06,0,.11-.02.17-.06.06-.04.23-.16.5-.35l.07-.05.07.13-.07.06-.21.16-.32.23c-.16.12-.3.22-.42.27-.11.06-.21.09-.28.09-.17,0-.26-.1-.26-.3v-.1s.51-2.56.51-2.56h-.62v-.1c.07,0,.12-.02.17-.04.05-.02.09-.04.13-.06l.2-.1.07-.03.1-.05.18-1.26c.12-.04.2-.08.26-.1.05-.02.12-.06.21-.11l.12-.06.08.11v.06s-.17.64-.17.64l-.15.67-.02.09.82-.05ZM115.02,359.94c-.21.2-.43.36-.64.49-.22.13-.37.2-.47.2-.07,0-.14-.03-.19-.08-.05-.06-.07-.13-.07-.21,0-.05,0-.11.03-.17l.48-1.97.05-.31.02-.25c0-.09-.04-.14-.13-.14-.15,0-.34.1-.59.3-.24.2-.44.41-.59.62-.15.22-.27.43-.35.63-.08.2-.15.4-.2.6-.05.2-.09.37-.12.51-.03.14-.05.25-.06.34l-.52.13-.04-.07.02-.08c.1-.35.17-.62.22-.82.05-.2.12-.54.21-1.02.09-.48.14-.79.14-.94,0-.13-.04-.2-.12-.2-.03,0-.21.09-.51.28l-.07.03-.06-.15.09-.06.18-.12c.31-.21.52-.34.64-.41.12-.06.22-.1.29-.1.04,0,.08.02.12.07.04.05.05.11.05.17,0,.08-.03.24-.08.48l-.19.86-.03.1c.16-.24.33-.46.51-.66.17-.2.36-.37.56-.53.2-.15.39-.28.58-.36.19-.09.35-.13.48-.13.14,0,.22.09.22.28,0,.12-.01.23-.05.35l-.52,2.12c-.02.09-.03.14-.03.16,0,.02,0,.06,0,.12,0,.08.04.13.12.13.05,0,.11-.02.17-.06.06-.04.17-.11.32-.22l.08-.07.07.15ZM110.56,357.66c0-.25-.12-.37-.36-.37-.51,0-.87.5-1.07,1.5.45-.08.8-.23,1.06-.42.25-.2.38-.43.38-.71ZM111.12,357.55c0,.32-.15.59-.46.82-.31.22-.79.41-1.45.57l-.11.02c-.02.08-.04.17-.05.26,0,.09-.01.21-.01.34,0,.23.05.4.14.52.09.12.23.18.42.18.11,0,.24-.02.36-.06.13-.04.25-.1.36-.17l.4-.26.07-.05.06.14c-.57.5-1.08.75-1.53.75-.27,0-.48-.08-.63-.23-.15-.15-.22-.37-.22-.65,0-.14,0-.29.03-.45.02-.16.07-.38.14-.66.07-.28.16-.5.25-.64.16-.27.41-.51.75-.7.34-.2.63-.29.87-.29.19,0,.34.05.45.15.11.1.16.24.16.42ZM107.23,357.52c-.23-.11-.48-.17-.75-.17-.3,0-.5.09-.61.27-.1.18-.19.38-.27.58-.08.21-.13.38-.15.51l-.09.62-.07.52c0,.07.02.14.06.19.04.05.08.08.14.08.03,0,.06,0,.1-.02.04-.01.15-.07.34-.18.19-.11.38-.3.59-.57.2-.28.35-.54.45-.79.09-.25.17-.57.24-.95l.02-.09ZM108.2,355.26l-.46,2.23-.36,1.73c-.04.19-.07.36-.09.49-.02.13-.03.23-.03.28,0,.04.02.08.07.13h.04c.08,0,.18-.04.28-.11l.24-.19.09-.07.07.15-.08.07-.45.36c-.26.21-.46.31-.61.31s-.22-.08-.22-.25l.17-.9.05-.32.02-.1-.05.08c-.45.67-.82,1.09-1.13,1.25-.31.16-.52.25-.61.25-.1,0-.19-.06-.25-.18-.06-.12-.09-.29-.09-.51,0-.41.06-.83.19-1.27.12-.43.28-.75.46-.96.19-.21.4-.38.66-.52.25-.14.47-.21.67-.21h.16l.29.07.1.02v-.09s.03-.07.03-.07c.04-.24.08-.47.12-.7.03-.23.05-.37.05-.42l-.02-.14c-.06-.03-.13-.05-.21-.05h-.35l.02-.16c.22,0,.42-.03.6-.09.18-.06.37-.14.56-.25l.1.07v.07ZM104.28,359.93l-.07.06c-.51.41-.86.62-1.06.62-.07,0-.13-.03-.18-.09-.05-.06-.07-.13-.07-.21v-.06s.02-.08.02-.08l.28-1.2.03-.1h-.02c-.1.17-.26.38-.47.63-.21.24-.4.45-.58.61-.18.16-.34.29-.5.37-.15.08-.28.13-.37.13-.09,0-.16-.03-.22-.09-.06-.06-.09-.14-.09-.24v-.06s.04-.14.04-.14l.48-2.39v-.04c0-.1-.04-.16-.12-.16-.04,0-.06.02-.07.03l-.3.17-.11.06-.09.05-.06-.15.07-.04.89-.57c.07-.04.14-.07.2-.07.13,0,.2.09.2.27,0,.07-.02.2-.05.36l-.26,1.24c-.07.35-.13.6-.16.76-.03.16-.04.24-.04.26,0,.19.03.28.1.28.1,0,.23-.07.4-.22.17-.14.36-.35.58-.62.22-.27.39-.53.52-.79.12-.26.22-.56.29-.92l.08-.4.02-.1.51-.13.04.07-.12.42-.06.2c-.24.97-.38,1.61-.44,1.92l-.04.21v.08s0,.1,0,.1c0,.07.01.11.03.13.01.01.05.02.1.02s.11-.02.17-.05c.06-.03.17-.11.34-.24l.07-.04.07.15ZM100.32,357.29l-.08.37h-.8v.1s-.25,1.13-.25,1.13c-.04.23-.08.5-.11.8l-.02.25v.07c0,.08.03.12.1.12.05,0,.11-.02.17-.06.06-.04.23-.16.5-.35l.07-.05.07.13-.07.06-.21.16-.32.23c-.16.12-.3.22-.42.27-.11.06-.21.09-.28.09-.17,0-.26-.1-.26-.3v-.1s.51-2.56.51-2.56h-.62v-.1c.07,0,.12-.02.17-.04.05-.02.09-.04.13-.06l.2-.1.07-.03.1-.05.18-1.26c.12-.04.2-.08.26-.1.05-.02.12-.06.21-.11l.12-.06.08.11v.06s-.17.64-.17.64l-.15.67-.02.09.82-.05ZM97.68,357.18l-.14.84h-.18v-.36c0-.09-.07-.18-.22-.25-.14-.07-.3-.11-.48-.11-.22,0-.4.06-.54.19-.14.13-.21.28-.21.47,0,.27.15.43.45.49l.51.1c.49.09.74.33.74.72,0,.19-.04.35-.11.48-.07.13-.25.3-.54.54-.28.23-.61.35-.96.35-.16,0-.29-.01-.38-.04-.1-.02-.24-.08-.42-.16l.07-.27.04-.23.02-.08.04-.31v-.09h.19v.63c.21.18.44.27.71.27s.46-.08.61-.23c.16-.15.23-.35.23-.58,0-.15-.04-.27-.11-.34-.07-.07-.27-.13-.57-.19-.31-.05-.54-.14-.7-.25-.16-.12-.24-.3-.24-.54,0-.26.14-.53.43-.8.29-.28.64-.42,1.06-.42.13,0,.24.01.35.04.1.02.23.07.38.15ZM92.58,357.66c0-.25-.12-.37-.36-.37-.51,0-.87.5-1.07,1.5.45-.08.8-.23,1.06-.42.25-.2.38-.43.38-.71ZM93.14,357.55c0,.32-.15.59-.46.82-.31.22-.79.41-1.45.57l-.11.02c-.02.08-.04.17-.05.26,0,.09-.01.21-.01.34,0,.23.05.4.14.52.09.12.23.18.42.18.11,0,.24-.02.37-.06.13-.04.25-.1.36-.17l.4-.26.07-.05.06.14c-.57.5-1.08.75-1.53.75-.27,0-.48-.08-.63-.23-.15-.15-.22-.37-.22-.65,0-.14,0-.29.03-.45.02-.16.07-.38.14-.66.07-.28.16-.5.25-.64.16-.27.41-.51.75-.7.34-.2.63-.29.87-.29.19,0,.34.05.45.15.11.1.16.24.16.42ZM90.12,359.94c-.27.23-.5.4-.69.51-.19.12-.34.18-.44.18-.07,0-.14-.03-.19-.08-.05-.05-.07-.13-.07-.21,0-.05,0-.12.02-.2.01-.09.04-.18.07-.29l.32-1.28c.12-.46.18-.75.18-.86,0-.13-.04-.19-.13-.19-.13,0-.32.1-.56.29-.25.19-.46.42-.65.67-.19.26-.31.47-.36.65-.05.18-.15.6-.29,1.27l-.02.12-.51.13-.05-.09.16-.6.41-1.81.05-.25.19-1.06c.05-.26.09-.49.11-.68.03-.19.04-.33.04-.42,0-.07-.03-.11-.08-.13s-.18-.03-.38-.03h-.15l.02-.16.1-.02c.35-.06.58-.1.68-.13.1-.03.25-.08.44-.15l.07.07-.7,3.33c.07-.11.14-.19.19-.26.05-.06.16-.17.31-.34.16-.16.3-.3.43-.4.13-.1.3-.21.51-.33.21-.12.41-.18.58-.18.14,0,.21.08.21.24,0,.03-.04.23-.12.57l-.39,1.59-.07.38-.02.18c0,.11.04.16.11.16.05,0,.12-.02.2-.07l.31-.22.07-.05.07.15ZM86.47,357.29l-.08.37h-.8v.1s-.25,1.13-.25,1.13c-.04.23-.08.5-.11.8l-.02.25v.07c0,.08.03.12.1.12.05,0,.11-.02.17-.06.06-.04.23-.16.5-.35l.07-.05.07.13-.07.06-.21.16-.32.23c-.16.12-.3.22-.42.27-.11.06-.21.09-.28.09-.17,0-.26-.1-.26-.3v-.1s.51-2.56.51-2.56h-.62v-.1c.07,0,.12-.02.17-.04.05-.02.09-.04.13-.06l.2-.1.07-.03.1-.05.18-1.26c.12-.04.2-.08.26-.1.05-.02.12-.06.21-.11l.12-.06.08.11v.06s-.17.64-.17.64l-.15.67-.02.09.82-.05ZM81.95,359.94c-.21.2-.43.36-.64.49-.22.13-.37.2-.47.2-.07,0-.14-.03-.19-.08-.05-.06-.07-.13-.07-.21,0-.05,0-.11.03-.17l.47-1.97.05-.31.02-.25c0-.09-.04-.14-.13-.14-.15,0-.34.1-.59.3-.24.2-.44.41-.59.62-.15.22-.27.43-.35.63-.08.2-.15.4-.2.6-.05.2-.09.37-.12.51-.03.14-.05.25-.06.34l-.52.13-.05-.07.02-.08c.1-.35.17-.62.22-.82.05-.2.12-.54.21-1.02.09-.48.14-.79.14-.94,0-.13-.04-.2-.12-.2-.04,0-.21.09-.51.28l-.07.03-.06-.15.09-.06.18-.12c.31-.21.52-.34.64-.41.12-.06.22-.1.29-.1.04,0,.08.02.12.07.03.05.05.11.05.17,0,.08-.03.24-.08.48l-.19.86-.03.1c.16-.24.33-.46.51-.66.17-.2.36-.37.56-.53.2-.15.39-.28.58-.36.19-.09.35-.13.48-.13.14,0,.22.09.22.28,0,.12-.01.23-.04.35l-.52,2.12c-.02.09-.03.14-.03.16,0,.02,0,.06,0,.12,0,.08.04.13.12.13.06,0,.11-.02.17-.06.06-.04.17-.11.32-.22l.08-.07.07.15ZM77.86,359.94c-.24.2-.46.36-.67.48-.21.12-.36.19-.46.19-.07,0-.13-.03-.18-.09-.05-.06-.07-.13-.07-.22l.03-.15.59-2.38v-.09c0-.13-.03-.19-.11-.19l-.57.32-.06-.15.08-.05.66-.44c.18-.13.33-.19.45-.19s.16.09.16.28c0,.06,0,.13-.02.19-.01.06-.03.12-.04.18l-.45,1.96-.06.21-.03.13v.1c-.01.07.02.1.1.1.04,0,.1-.02.16-.05.06-.03.17-.11.33-.23l.09-.07.07.15ZM78.06,355.58c0,.14-.04.26-.12.36-.08.1-.18.15-.3.15-.08,0-.15-.03-.2-.09-.05-.06-.08-.14-.08-.23,0-.08.02-.16.06-.24.04-.07.09-.14.16-.19.07-.05.13-.07.19-.07.19,0,.29.1.29.31ZM73.55,360.07c0,.14-.05.27-.13.36-.09.1-.2.15-.33.15-.1,0-.18-.03-.24-.1-.06-.06-.09-.15-.09-.27,0-.13.04-.25.13-.35.08-.1.18-.16.3-.16s.2.03.27.1c.06.06.1.15.1.26ZM71.69,360.07c0,.14-.05.27-.13.36-.09.1-.2.15-.33.15-.1,0-.18-.03-.24-.1-.06-.06-.09-.15-.09-.27,0-.13.04-.25.13-.35.08-.1.18-.16.3-.16s.2.03.27.1c.06.06.1.15.1.26ZM69.83,360.07c0,.14-.04.27-.13.36-.09.1-.2.15-.33.15-.1,0-.18-.03-.24-.1-.06-.06-.09-.15-.09-.27,0-.13.04-.25.13-.35.08-.1.18-.16.3-.16s.2.03.27.1c.06.06.1.15.1.26Z"/>
  <path class="cls-5" d="M146.32,357.66c0-.25-.12-.37-.36-.37-.51,0-.87.5-1.07,1.5.45-.08.8-.23,1.06-.42.25-.2.38-.43.38-.71ZM146.88,357.55c0,.32-.15.59-.46.82-.31.22-.79.41-1.45.57l-.11.02c-.02.08-.04.17-.05.26,0,.09-.01.21-.01.34,0,.23.05.4.14.52.09.12.23.18.42.18.11,0,.24-.02.36-.06.13-.04.25-.1.36-.17l.4-.26.07-.05.06.14c-.57.5-1.08.75-1.53.75-.27,0-.48-.08-.63-.23-.15-.15-.22-.37-.22-.65,0-.14,0-.29.03-.45s.07-.38.14-.66c.07-.28.16-.5.25-.64.16-.27.41-.51.75-.7.34-.2.63-.29.87-.29.19,0,.34.05.45.15.11.1.16.24.16.42ZM143.81,359.94c-.24.21-.47.37-.67.5-.21.13-.36.19-.46.19-.07,0-.13-.03-.18-.08-.05-.06-.07-.12-.07-.2l.04-.15.53-2.29.04-.16.02-.15c0-.07-.03-.1-.1-.1-.1,0-.23.05-.39.14-.16.09-.34.25-.56.47-.22.22-.39.49-.54.83-.14.34-.26.83-.37,1.47v.1s-.53.13-.53.13v-.1s0-.07,0-.07l.22-1,.05-.25.17-.8.08-.5.02-.27c0-.1-.03-.16-.09-.16-.11,0-.24.05-.41.16-.16.11-.33.26-.5.46-.17.2-.32.43-.44.69-.12.26-.22.58-.29.94l-.13.66v.09s-.53.13-.53.13l-.06-.08.03-.1.28-1.09.16-.71c.05-.22.07-.37.07-.44l.03-.33v-.21c.01-.11-.02-.16-.1-.16-.05.01-.08.03-.1.04l-.39.22-.09.05-.07-.15.09-.06.49-.33c.15-.1.28-.18.38-.23.1-.05.18-.07.24-.07.05,0,.09.03.12.08.03.05.05.12.05.2v.06l-.02.09-.13.71-.06.25-.02.09.06-.08.2-.26.16-.17.19-.2c.08-.1.21-.21.39-.34.17-.13.31-.21.41-.26.1-.05.19-.09.27-.11.08-.02.15-.04.23-.04.12,0,.19.07.19.22,0,.06-.01.15-.04.26l-.19.92-.02.11c.19-.27.34-.47.46-.6.12-.13.28-.27.48-.41.2-.15.4-.27.59-.36.19-.09.35-.14.47-.14.06,0,.12.02.16.06.04.04.06.09.06.16l-.02.15-.61,2.59v.1s0,.07,0,.07l.12.02s.09-.02.15-.06c.07-.04.17-.11.31-.21l.09-.07.07.16ZM137.64,357.66c0-.25-.12-.37-.36-.37-.51,0-.87.5-1.07,1.5.45-.08.8-.23,1.06-.42.25-.2.38-.43.38-.71ZM138.2,357.55c0,.32-.15.59-.46.82-.31.22-.79.41-1.45.57l-.11.02c-.03.08-.04.17-.05.26,0,.09-.01.21-.01.34,0,.23.05.4.14.52.09.12.23.18.42.18.11,0,.24-.02.36-.06.13-.04.25-.1.36-.17l.4-.26.07-.05.06.14c-.57.5-1.08.75-1.53.75-.27,0-.48-.08-.63-.23-.15-.15-.22-.37-.22-.65,0-.14,0-.29.03-.45s.07-.38.14-.66c.07-.28.16-.5.25-.64.16-.27.41-.51.75-.7.34-.2.63-.29.87-.29.19,0,.34.05.45.15.11.1.16.24.16.42ZM135.27,357.67c0,.47-.16.98-.48,1.55-.32.57-.63.94-.92,1.12-.29.18-.55.27-.75.27-.24,0-.43-.09-.59-.27s-.23-.41-.23-.7c0-.45.09-.82.28-1.13.19-.31.32-.51.39-.61.08-.1.22-.27.44-.51h-.12s-.2.04-.2.04h-.75s-.07.02-.1.07l-.17.33-.06.1h-.16l.31-.88c.09-.03.18-.04.27-.04h.13s.92.04.92.04c.07,0,.17-.02.29-.07l.07.12-.06.07c-.63.8-.95,1.56-.95,2.26,0,.25.05.44.15.58.1.14.24.21.41.21.36,0,.68-.25.96-.74.28-.49.43-1,.43-1.53,0-.32-.1-.47-.31-.47-.05,0-.12.02-.21.06l-.09-.14.07-.06c.18-.19.3-.3.35-.33.05-.02.11-.04.19-.04.14,0,.26.06.35.19.09.12.13.29.13.5ZM130.87,358.23c0-.65-.22-.98-.66-.98h-.03c-.14,0-.28.04-.39.12-.12.08-.23.2-.32.37-.09.17-.17.41-.25.74-.07.33-.11.63-.11.92,0,.63.22.95.67.95.5,0,.8-.3.92-.91.11-.61.17-1.01.17-1.21ZM131.45,358.11c0,.68-.19,1.28-.58,1.77-.38.5-.84.75-1.37.75-.17,0-.33-.04-.48-.12-.15-.08-.27-.19-.36-.35-.09-.15-.13-.4-.13-.74,0-.67.18-1.24.55-1.72.36-.48.81-.71,1.34-.71h.05c.32,0,.57.09.74.28.17.19.25.47.25.83ZM128.1,359.94c-.24.21-.47.37-.67.5-.21.13-.36.19-.47.19-.07,0-.13-.03-.18-.08-.05-.06-.07-.12-.07-.2l.04-.15.53-2.29.04-.16.02-.15c0-.07-.03-.1-.1-.1-.1,0-.23.05-.39.14-.16.09-.34.25-.56.47-.22.22-.39.49-.54.83-.14.34-.26.83-.37,1.47l-.02.1-.51.13v-.1s0-.07,0-.07l.22-1,.05-.25.17-.8.08-.5.02-.27c0-.1-.03-.16-.09-.16-.11,0-.24.05-.41.16-.16.11-.33.26-.5.46-.17.2-.32.43-.44.69-.12.26-.22.58-.29.94l-.13.66v.09s-.53.13-.53.13l-.06-.08.03-.1.28-1.09.16-.71c.05-.22.07-.37.07-.44l.03-.33v-.21c.01-.11-.02-.16-.1-.16-.04.01-.08.03-.1.04l-.39.22-.09.05-.07-.15.09-.06.49-.33c.15-.1.28-.18.38-.23.1-.05.18-.07.24-.07.05,0,.09.03.12.08.03.05.05.12.05.2v.15s-.14.71-.14.71l-.06.25-.02.09.06-.08.2-.26.16-.17.19-.2c.08-.1.21-.21.39-.34.17-.13.31-.21.41-.26.1-.05.19-.09.27-.11.08-.02.15-.04.23-.04.12,0,.19.07.19.22,0,.06-.01.15-.04.26l-.19.92-.02.11c.19-.27.34-.47.46-.6.12-.13.28-.27.48-.41.2-.15.4-.27.59-.36.19-.09.35-.14.47-.14.06,0,.12.02.16.06.04.04.06.09.06.16l-.02.15-.61,2.59-.02.1.02.07.12.02s.09-.02.15-.06c.07-.04.17-.11.31-.21l.09-.07.07.16ZM120.42,357.18l-.14.84h-.18v-.36c0-.09-.07-.18-.22-.25-.14-.07-.3-.11-.48-.11-.22,0-.4.06-.54.19-.14.13-.21.28-.21.47,0,.27.15.43.45.49l.51.1c.49.09.74.33.74.72,0,.19-.04.35-.11.48-.07.13-.25.3-.54.54-.29.23-.61.35-.96.35-.16,0-.29-.01-.38-.04-.1-.02-.24-.08-.42-.16l.07-.27.04-.23.02-.08.04-.31v-.09h.19v.63c.21.18.44.27.71.27s.46-.08.61-.23c.16-.15.23-.35.23-.58,0-.15-.04-.27-.11-.34-.07-.07-.27-.13-.57-.19-.31-.05-.54-.14-.7-.25-.16-.12-.24-.3-.24-.54,0-.26.14-.53.43-.8.29-.28.64-.42,1.06-.42.13,0,.24.01.35.04.1.02.23.07.38.15ZM117.68,357.29l-.08.37h-.8v.1s-.25,1.13-.25,1.13c-.04.23-.08.5-.11.8l-.02.25v.07c0,.08.03.12.1.12.06,0,.11-.02.17-.06.06-.04.23-.16.5-.35l.07-.05.07.13-.07.06-.21.16-.32.23c-.16.12-.3.22-.42.27-.11.06-.21.09-.28.09-.17,0-.26-.1-.26-.3v-.1s.51-2.56.51-2.56h-.62v-.1c.07,0,.12-.02.17-.04.05-.02.09-.04.13-.06l.2-.1.07-.03.1-.05.18-1.26c.12-.04.2-.08.26-.1.05-.02.12-.06.21-.11l.12-.06.08.11v.06s-.17.64-.17.64l-.15.67-.02.09.82-.05ZM115.02,359.94c-.21.2-.43.36-.64.49-.22.13-.37.2-.47.2-.07,0-.14-.03-.19-.08-.05-.06-.07-.13-.07-.21,0-.05,0-.11.03-.17l.48-1.97.05-.31.02-.25c0-.09-.04-.14-.13-.14-.15,0-.34.1-.59.3-.24.2-.44.41-.59.62-.15.22-.27.43-.35.63-.08.2-.15.4-.2.6-.05.2-.09.37-.12.51-.03.14-.05.25-.06.34l-.52.13-.04-.07.02-.08c.1-.35.17-.62.22-.82.05-.2.12-.54.21-1.02.09-.48.14-.79.14-.94,0-.13-.04-.2-.12-.2-.03,0-.21.09-.51.28l-.07.03-.06-.15.09-.06.18-.12c.31-.21.52-.34.64-.41.12-.06.22-.1.29-.1.04,0,.08.02.12.07.04.05.05.11.05.17,0,.08-.03.24-.08.48l-.19.86-.03.1c.16-.24.33-.46.51-.66.17-.2.36-.37.56-.53.2-.15.39-.28.58-.36.19-.09.35-.13.48-.13.14,0,.22.09.22.28,0,.12-.01.23-.05.35l-.52,2.12c-.02.09-.03.14-.03.16,0,.02,0,.06,0,.12,0,.08.04.13.12.13.05,0,.11-.02.17-.06.06-.04.17-.11.32-.22l.08-.07.07.15ZM110.56,357.66c0-.25-.12-.37-.36-.37-.51,0-.87.5-1.07,1.5.45-.08.8-.23,1.06-.42.25-.2.38-.43.38-.71ZM111.12,357.55c0,.32-.15.59-.46.82-.31.22-.79.41-1.45.57l-.11.02c-.02.08-.04.17-.05.26,0,.09-.01.21-.01.34,0,.23.05.4.14.52.09.12.23.18.42.18.11,0,.24-.02.36-.06.13-.04.25-.1.36-.17l.4-.26.07-.05.06.14c-.57.5-1.08.75-1.53.75-.27,0-.48-.08-.63-.23-.15-.15-.22-.37-.22-.65,0-.14,0-.29.03-.45.02-.16.07-.38.14-.66.07-.28.16-.5.25-.64.16-.27.41-.51.75-.7.34-.2.63-.29.87-.29.19,0,.34.05.45.15.11.1.16.24.16.42ZM107.23,357.52c-.23-.11-.48-.17-.75-.17-.3,0-.5.09-.61.27-.1.18-.19.38-.27.58-.08.21-.13.38-.15.51l-.09.62-.07.52c0,.07.02.14.06.19.04.05.08.08.14.08.03,0,.06,0,.1-.02.04-.01.15-.07.34-.18.19-.11.38-.3.59-.57.2-.28.35-.54.45-.79.09-.25.17-.57.24-.95l.02-.09ZM108.2,355.26l-.46,2.23-.36,1.73c-.04.19-.07.36-.09.49-.02.13-.03.23-.03.28,0,.04.02.08.07.13h.04c.08,0,.18-.04.28-.11l.24-.19.09-.07.07.15-.08.07-.45.36c-.26.21-.46.31-.61.31s-.22-.08-.22-.25l.17-.9.05-.32.02-.1-.05.08c-.45.67-.82,1.09-1.13,1.25-.31.16-.52.25-.61.25-.1,0-.19-.06-.25-.18-.06-.12-.09-.29-.09-.51,0-.41.06-.83.19-1.27.12-.43.28-.75.46-.96.19-.21.4-.38.66-.52.25-.14.47-.21.67-.21h.16l.29.07.1.02v-.09s.03-.07.03-.07c.04-.24.08-.47.12-.7.03-.23.05-.37.05-.42l-.02-.14c-.06-.03-.13-.05-.21-.05h-.35l.02-.16c.22,0,.42-.03.6-.09.18-.06.37-.14.56-.25l.1.07v.07ZM104.28,359.93l-.07.06c-.51.41-.86.62-1.06.62-.07,0-.13-.03-.18-.09-.05-.06-.07-.13-.07-.21v-.06s.02-.08.02-.08l.28-1.2.03-.1h-.02c-.1.17-.26.38-.47.63-.21.24-.4.45-.58.61-.18.16-.34.29-.5.37-.15.08-.28.13-.37.13-.09,0-.16-.03-.22-.09-.06-.06-.09-.14-.09-.24v-.06s.04-.14.04-.14l.48-2.39v-.04c0-.1-.04-.16-.12-.16-.04,0-.06.02-.07.03l-.3.17-.11.06-.09.05-.06-.15.07-.04.89-.57c.07-.04.14-.07.2-.07.13,0,.2.09.2.27,0,.07-.02.2-.05.36l-.26,1.24c-.07.35-.13.6-.16.76-.03.16-.04.24-.04.26,0,.19.03.28.1.28.1,0,.23-.07.4-.22.17-.14.36-.35.58-.62.22-.27.39-.53.52-.79.12-.26.22-.56.29-.92l.08-.4.02-.1.51-.13.04.07-.12.42-.06.2c-.24.97-.38,1.61-.44,1.92l-.04.21v.08s0,.1,0,.1c0,.07.01.11.03.13.01.01.05.02.1.02s.11-.02.17-.05c.06-.03.17-.11.34-.24l.07-.04.07.15ZM100.32,357.29l-.08.37h-.8v.1s-.25,1.13-.25,1.13c-.04.23-.08.5-.11.8l-.02.25v.07c0,.08.03.12.1.12.05,0,.11-.02.17-.06.06-.04.23-.16.5-.35l.07-.05.07.13-.07.06-.21.16-.32.23c-.16.12-.3.22-.42.27-.11.06-.21.09-.28.09-.17,0-.26-.1-.26-.3v-.1s.51-2.56.51-2.56h-.62v-.1c.07,0,.12-.02.17-.04.05-.02.09-.04.13-.06l.2-.1.07-.03.1-.05.18-1.26c.12-.04.2-.08.26-.1.05-.02.12-.06.21-.11l.12-.06.08.11v.06s-.17.64-.17.64l-.15.67-.02.09.82-.05ZM97.68,357.18l-.14.84h-.18v-.36c0-.09-.07-.18-.22-.25-.14-.07-.3-.11-.48-.11-.22,0-.4.06-.54.19-.14.13-.21.28-.21.47,0,.27.15.43.45.49l.51.1c.49.09.74.33.74.72,0,.19-.04.35-.11.48-.07.13-.25.3-.54.54-.28.23-.61.35-.96.35-.16,0-.29-.01-.38-.04-.1-.02-.24-.08-.42-.16l.07-.27.04-.23.02-.08.04-.31v-.09h.19v.63c.21.18.44.27.71.27s.46-.08.61-.23c.16-.15.23-.35.23-.58,0-.15-.04-.27-.11-.34-.07-.07-.27-.13-.57-.19-.31-.05-.54-.14-.7-.25-.16-.12-.24-.3-.24-.54,0-.26.14-.53.43-.8.29-.28.64-.42,1.06-.42.13,0,.24.01.35.04.1.02.23.07.38.15ZM92.58,357.66c0-.25-.12-.37-.36-.37-.51,0-.87.5-1.07,1.5.45-.08.8-.23,1.06-.42.25-.2.38-.43.38-.71ZM93.14,357.55c0,.32-.15.59-.46.82-.31.22-.79.41-1.45.57l-.11.02c-.02.08-.04.17-.05.26,0,.09-.01.21-.01.34,0,.23.05.4.14.52.09.12.23.18.42.18.11,0,.24-.02.37-.06.13-.04.25-.1.36-.17l.4-.26.07-.05.06.14c-.57.5-1.08.75-1.53.75-.27,0-.48-.08-.63-.23-.15-.15-.22-.37-.22-.65,0-.14,0-.29.03-.45.02-.16.07-.38.14-.66.07-.28.16-.5.25-.64.16-.27.41-.51.75-.7.34-.2.63-.29.87-.29.19,0,.34.05.45.15.11.1.16.24.16.42ZM90.12,359.94c-.27.23-.5.4-.69.51-.19.12-.34.18-.44.18-.07,0-.14-.03-.19-.08-.05-.05-.07-.13-.07-.21,0-.05,0-.12.02-.2.01-.09.04-.18.07-.29l.32-1.28c.12-.46.18-.75.18-.86,0-.13-.04-.19-.13-.19-.13,0-.32.1-.56.29-.25.19-.46.42-.65.67-.19.26-.31.47-.36.65-.05.18-.15.6-.29,1.27l-.02.12-.51.13-.05-.09.16-.6.41-1.81.05-.25.19-1.06c.05-.26.09-.49.11-.68.03-.19.04-.33.04-.42,0-.07-.03-.11-.08-.13s-.18-.03-.38-.03h-.15l.02-.16.1-.02c.35-.06.58-.1.68-.13.1-.03.25-.08.44-.15l.07.07-.7,3.33c.07-.11.14-.19.19-.26.05-.06.16-.17.31-.34.16-.16.3-.3.43-.4.13-.1.3-.21.51-.33.21-.12.41-.18.58-.18.14,0,.21.08.21.24,0,.03-.04.23-.12.57l-.39,1.59-.07.38-.02.18c0,.11.04.16.11.16.05,0,.12-.02.2-.07l.31-.22.07-.05.07.15ZM86.47,357.29l-.08.37h-.8v.1s-.25,1.13-.25,1.13c-.04.23-.08.5-.11.8l-.02.25v.07c0,.08.03.12.1.12.05,0,.11-.02.17-.06.06-.04.23-.16.5-.35l.07-.05.07.13-.07.06-.21.16-.32.23c-.16.12-.3.22-.42.27-.11.06-.21.09-.28.09-.17,0-.26-.1-.26-.3v-.1s.51-2.56.51-2.56h-.62v-.1c.07,0,.12-.02.17-.04.05-.02.09-.04.13-.06l.2-.1.07-.03.1-.05.18-1.26c.12-.04.2-.08.26-.1.05-.02.12-.06.21-.11l.12-.06.08.11v.06s-.17.64-.17.64l-.15.67-.02.09.82-.05ZM81.95,359.94c-.21.2-.43.36-.64.49-.22.13-.37.2-.47.2-.07,0-.14-.03-.19-.08-.05-.06-.07-.13-.07-.21,0-.05,0-.11.03-.17l.47-1.97.05-.31.02-.25c0-.09-.04-.14-.13-.14-.15,0-.34.1-.59.3-.24.2-.44.41-.59.62-.15.22-.27.43-.35.63-.08.2-.15.4-.2.6-.05.2-.09.37-.12.51-.03.14-.05.25-.06.34l-.52.13-.05-.07.02-.08c.1-.35.17-.62.22-.82.05-.2.12-.54.21-1.02.09-.48.14-.79.14-.94,0-.13-.04-.2-.12-.2-.04,0-.21.09-.51.28l-.07.03-.06-.15.09-.06.18-.12c.31-.21.52-.34.64-.41.12-.06.22-.1.29-.1.04,0,.08.02.12.07.03.05.05.11.05.17,0,.08-.03.24-.08.48l-.19.86-.03.1c.16-.24.33-.46.51-.66.17-.2.36-.37.56-.53.2-.15.39-.28.58-.36.19-.09.35-.13.48-.13.14,0,.22.09.22.28,0,.12-.01.23-.04.35l-.52,2.12c-.02.09-.03.14-.03.16,0,.02,0,.06,0,.12,0,.08.04.13.12.13.06,0,.11-.02.17-.06.06-.04.17-.11.32-.22l.08-.07.07.15ZM77.86,359.94c-.24.2-.46.36-.67.48-.21.12-.36.19-.46.19-.07,0-.13-.03-.18-.09-.05-.06-.07-.13-.07-.22l.03-.15.59-2.38v-.09c0-.13-.03-.19-.11-.19l-.57.32-.06-.15.08-.05.66-.44c.18-.13.33-.19.45-.19s.16.09.16.28c0,.06,0,.13-.02.19-.01.06-.03.12-.04.18l-.45,1.96-.06.21-.03.13v.1c-.01.07.02.1.1.1.04,0,.1-.02.16-.05.06-.03.17-.11.33-.23l.09-.07.07.15ZM78.06,355.58c0,.14-.04.26-.12.36-.08.1-.18.15-.3.15-.08,0-.15-.03-.2-.09-.05-.06-.08-.14-.08-.23,0-.08.02-.16.06-.24.04-.07.09-.14.16-.19.07-.05.13-.07.19-.07.19,0,.29.1.29.31ZM73.55,360.07c0,.14-.05.27-.13.36-.09.1-.2.15-.33.15-.1,0-.18-.03-.24-.1-.06-.06-.09-.15-.09-.27,0-.13.04-.25.13-.35.08-.1.18-.16.3-.16s.2.03.27.1c.06.06.1.15.1.26ZM71.69,360.07c0,.14-.05.27-.13.36-.09.1-.2.15-.33.15-.1,0-.18-.03-.24-.1-.06-.06-.09-.15-.09-.27,0-.13.04-.25.13-.35.08-.1.18-.16.3-.16s.2.03.27.1c.06.06.1.15.1.26ZM69.83,360.07c0,.14-.04.27-.13.36-.09.1-.2.15-.33.15-.1,0-.18-.03-.24-.1-.06-.06-.09-.15-.09-.27,0-.13.04-.25.13-.35.08-.1.18-.16.3-.16s.2.03.27.1c.06.06.1.15.1.26Z"/>
  <path class="cls-6" d="M186.77,356.53c0,.58-.31,1.19-.93,1.85l-1.01,1.08-.47.52-.03.03v.02s0,.03,0,.03h1l.22.02.04-.02h.24c.2,0,.36,0,.46-.01.1,0,.19-.01.27-.02h.12l.04.03-.13.53-.52-.03h-2.04l-.43.03v-.05c0-.05,0-.09.01-.11,0-.02.05-.06.11-.11l.14-.16.18-.18.4-.44.28-.33c.43-.51.72-.87.87-1.09.15-.22.28-.46.37-.72.1-.26.15-.49.15-.69,0-.26-.07-.46-.22-.62-.15-.15-.35-.23-.61-.23-.2,0-.39.07-.58.22-.19.14-.34.34-.46.59l-.18-.07.06-.11.12-.25.12-.23c.11-.22.26-.38.43-.48.17-.09.41-.14.7-.14.38,0,.68.11.92.32.23.21.35.5.35.85ZM183.53,355.7l-.95,1.54-.13.23-.43.74c-.14.24-.34.61-.59,1.11l-.34.7-.2.47-.04.09s-.08,0-.13-.02c-.05,0-.1,0-.14,0h-.09l-.12.02h-.14l-.04-.08.31-.45c.67-1.01,1.15-1.75,1.45-2.24.3-.49.65-1.09,1.05-1.81h-1.82l-.36.03h-.37v-.11s.07-.34.07-.34v-.1s.01-.04.01-.04l.02-.02c.27,0,.52,0,.73.02s.46.03.72.05l1.52-.02v.25ZM178.99,356.82c0-.36-.07-.63-.21-.82-.14-.19-.34-.29-.61-.29-.28,0-.52.13-.7.38-.19.26-.28.57-.28.96,0,.7.28,1.05.84,1.05.14,0,.29-.05.44-.14.15-.09.27-.22.37-.39.1-.17.15-.42.15-.75ZM179.56,357c0,.63-.1,1.21-.31,1.74-.2.53-.44.92-.71,1.18-.27.26-.53.44-.77.55-.24.11-.44.16-.61.16h-.07l-.25-.04c-.13-.02-.22-.04-.25-.06-.03-.02-.05-.07-.06-.15l-.04-.13-.14-.44-.03-.08.16-.06c.19.41.47.62.84.62.77,0,1.31-.83,1.61-2.49-.21.25-.41.43-.6.54-.19.11-.4.16-.63.16-.34,0-.61-.11-.81-.33-.2-.22-.3-.52-.3-.9,0-.52.18-.96.55-1.34.36-.37.8-.56,1.3-.56.17,0,.34.05.5.13.16.09.28.21.36.36.08.15.15.31.19.49.04.18.06.39.06.65ZM175.32,360.35l-.04.22h-.13c-.12,0-.32,0-.61-.01-.29,0-.45-.01-.49-.01-.13,0-.36,0-.68.01-.32,0-.48.01-.5.01h-.12l.02-.22h.23c.08-.01.14-.02.19-.03l.24-.04c.11-.02.18-.05.22-.08.04-.04.07-.11.08-.21l.66-4v-.1l-.09.04-.14.05-.25.1-.09.03-.71.34-.1.05-.06-.05.09-.43.09-.02.47-.13.26-.09.38-.11.55-.23.13-.05.08-.03.11.08-.16.77-.31,1.73-.05.26-.26,1.65v.18c-.01.13.04.21.16.26.11.04.35.07.71.07h.1ZM169.82,357.66c0-.25-.12-.37-.36-.37-.51,0-.87.5-1.07,1.5.45-.08.8-.23,1.06-.42.25-.2.38-.43.38-.71ZM170.38,357.55c0,.32-.15.59-.46.82-.31.22-.79.41-1.45.57l-.11.02c-.02.08-.04.17-.05.26,0,.09-.01.21-.01.34,0,.23.05.4.14.52.09.12.23.18.42.18.11,0,.24-.02.36-.06.13-.04.25-.1.37-.17l.4-.26.07-.05.06.14c-.57.5-1.08.75-1.53.75-.27,0-.48-.08-.63-.23-.15-.15-.22-.37-.22-.65,0-.14,0-.29.03-.45.02-.16.07-.38.14-.66.07-.28.16-.5.25-.64.16-.27.41-.51.75-.7.34-.2.63-.29.87-.29.19,0,.34.05.45.15.11.1.16.24.16.42ZM167.46,357.17c-.03.1-.06.19-.07.26-.01.07-.03.22-.06.45l-.04.22h-.17v-.13c0-.26-.03-.43-.1-.51s-.22-.11-.46-.11c-.26,0-.47.06-.63.19-.16.13-.27.32-.36.58-.08.26-.15.49-.19.7-.05.21-.07.38-.07.51,0,.61.21.92.62.92.28,0,.58-.11.9-.34l.22-.15.1-.07.06.16c-.56.53-1.08.79-1.57.79-.28,0-.5-.09-.65-.28-.15-.19-.23-.45-.23-.8,0-.25.03-.52.1-.8.06-.28.13-.48.2-.62.07-.13.16-.27.27-.39l.13-.15s.06-.05.11-.09c.05-.03.11-.08.19-.13.29-.17.5-.27.61-.32.12-.04.27-.07.46-.07.26,0,.46.06.61.18ZM164.22,359.94c-.21.2-.43.36-.64.49-.22.13-.37.2-.47.2-.07,0-.14-.03-.19-.08-.05-.06-.07-.13-.07-.21,0-.05,0-.11.03-.17l.48-1.97.05-.31.02-.25c0-.09-.04-.14-.13-.14-.15,0-.34.1-.59.3-.24.2-.44.41-.59.62-.15.22-.27.43-.35.63-.08.2-.15.4-.2.6-.05.2-.09.37-.12.51-.03.14-.05.25-.06.34l-.52.13-.04-.07.02-.08c.1-.35.17-.62.22-.82.05-.2.12-.54.21-1.02.09-.48.14-.79.14-.94,0-.13-.04-.2-.12-.2-.03,0-.21.09-.51.28l-.07.03-.06-.15.09-.06.18-.12c.31-.21.52-.34.64-.41.12-.06.22-.1.29-.1.05,0,.08.02.12.07.04.05.05.11.05.17,0,.08-.03.24-.08.48l-.19.86-.03.1c.16-.24.33-.46.51-.66.17-.2.36-.37.56-.53.2-.15.39-.28.58-.36.19-.09.35-.13.48-.13.14,0,.22.09.22.28,0,.12-.01.23-.05.35l-.52,2.12c-.02.09-.03.14-.03.16,0,.02,0,.06,0,.12,0,.08.04.13.12.13.05,0,.11-.02.17-.06.06-.04.17-.11.32-.22l.08-.07.07.15ZM160.13,359.94c-.24.2-.46.36-.67.48-.21.12-.36.19-.46.19-.07,0-.13-.03-.18-.09-.05-.06-.07-.13-.07-.22l.03-.15.59-2.38v-.09c0-.13-.03-.19-.11-.19l-.57.32-.06-.15.08-.05.66-.44c.18-.13.33-.19.45-.19s.16.09.16.28c0,.06,0,.13-.02.19-.01.06-.03.12-.04.18l-.45,1.96-.06.21-.03.13-.02.1c0,.07.04.1.12.1.05,0,.1-.02.16-.05.06-.03.17-.11.33-.23l.09-.07.07.15ZM160.33,355.58c0,.14-.04.26-.12.36-.08.1-.18.15-.31.15-.08,0-.15-.03-.2-.09-.05-.06-.08-.14-.08-.23,0-.08.02-.16.06-.24.04-.07.09-.14.16-.19.07-.05.13-.07.19-.07.19,0,.29.1.29.31ZM158.04,357.18l-.14.84h-.18v-.36c0-.09-.07-.18-.22-.25-.14-.07-.31-.11-.48-.11-.22,0-.4.06-.54.19-.14.13-.21.28-.21.47,0,.27.15.43.45.49l.51.1c.49.09.74.33.74.72,0,.19-.04.35-.11.48-.07.13-.25.3-.54.54-.28.23-.61.35-.96.35-.16,0-.29-.01-.38-.04-.1-.02-.24-.08-.42-.16l.07-.27.04-.23.02-.08.04-.31v-.09h.19v.63c.21.18.44.27.71.27s.46-.08.61-.23c.16-.15.23-.35.23-.58,0-.15-.04-.27-.11-.34-.07-.07-.27-.13-.57-.19-.31-.05-.54-.14-.7-.25-.16-.12-.24-.3-.24-.54,0-.26.14-.53.43-.8.28-.28.64-.42,1.06-.42.13,0,.24.01.35.04.1.02.23.07.38.15ZM153.44,357.29l-.08.37h-.8v.1s-.25,1.13-.25,1.13c-.04.23-.08.5-.11.8l-.02.25v.07c0,.08.03.12.1.12.05,0,.11-.02.17-.06.06-.04.23-.16.5-.35l.07-.05.07.13-.07.06-.21.16-.32.23c-.16.12-.3.22-.42.27-.11.06-.21.09-.28.09-.17,0-.26-.1-.26-.3v-.1s.51-2.56.51-2.56h-.63l.02-.1c.05,0,.11-.02.16-.04.05-.02.09-.04.13-.06l.2-.1.07-.03.1-.05.18-1.26c.12-.04.2-.08.26-.1.05-.02.12-.06.21-.11l.12-.06.08.11v.06s-.17.64-.17.64l-.15.67-.02.09.82-.05ZM150.78,359.94c-.21.2-.43.36-.64.49-.22.13-.37.2-.47.2-.07,0-.14-.03-.19-.08-.05-.06-.07-.13-.07-.21,0-.05.01-.11.03-.17l.47-1.97.05-.31.02-.25c0-.09-.04-.14-.13-.14-.15,0-.34.1-.59.3-.24.2-.44.41-.59.62-.15.22-.27.43-.35.63-.08.2-.15.4-.2.6-.05.2-.09.37-.12.51-.03.14-.05.25-.06.34l-.52.13-.04-.07.02-.08c.1-.35.17-.62.22-.82.05-.2.12-.54.21-1.02.09-.48.14-.79.14-.94,0-.13-.04-.2-.12-.2-.03,0-.21.09-.51.28l-.07.03-.06-.15.09-.06.18-.12c.31-.21.52-.34.64-.41.12-.06.22-.1.29-.1.04,0,.08.02.12.07.03.05.05.11.05.17,0,.08-.03.24-.08.48l-.19.86-.03.1c.16-.24.33-.46.51-.66.17-.2.36-.37.56-.53.2-.15.39-.28.58-.36.19-.09.35-.13.48-.13.14,0,.22.09.22.28,0,.12-.01.23-.04.35l-.52,2.12c-.02.09-.03.14-.03.16,0,.02,0,.06,0,.12,0,.08.04.13.12.13.06,0,.11-.02.17-.06.06-.04.17-.11.32-.22l.08-.07.07.15Z"/>
  <path class="cls-5" d="M186.77,356.53c0,.58-.31,1.19-.93,1.85l-1.01,1.08-.47.52-.03.03v.02s0,.03,0,.03h1l.22.02.04-.02h.24c.2,0,.36,0,.46-.01.1,0,.19-.01.27-.02h.12l.04.03-.13.53-.52-.03h-2.04l-.43.03v-.05c0-.05,0-.09.01-.11,0-.02.05-.06.11-.11l.14-.16.18-.18.4-.44.28-.33c.43-.51.72-.87.87-1.09.15-.22.28-.46.37-.72.1-.26.15-.49.15-.69,0-.26-.07-.46-.22-.62-.15-.15-.35-.23-.61-.23-.2,0-.39.07-.58.22-.19.14-.34.34-.46.59l-.18-.07.06-.11.12-.25.12-.23c.11-.22.26-.38.43-.48.17-.09.41-.14.7-.14.38,0,.68.11.92.32.23.21.35.5.35.85ZM183.53,355.7l-.95,1.54-.13.23-.43.74c-.14.24-.34.61-.59,1.11l-.34.7-.2.47-.04.09s-.08,0-.13-.02c-.05,0-.1,0-.14,0h-.09l-.12.02h-.14l-.04-.08.31-.45c.67-1.01,1.15-1.75,1.45-2.24.3-.49.65-1.09,1.05-1.81h-1.82l-.36.03h-.37v-.11s.07-.34.07-.34v-.1s.01-.04.01-.04l.02-.02c.27,0,.52,0,.73.02s.46.03.72.05l1.52-.02v.25ZM178.99,356.82c0-.36-.07-.63-.21-.82-.14-.19-.34-.29-.61-.29-.28,0-.52.13-.7.38-.19.26-.28.57-.28.96,0,.7.28,1.05.84,1.05.14,0,.29-.05.44-.14.15-.09.27-.22.37-.39.1-.17.15-.42.15-.75ZM179.56,357c0,.63-.1,1.21-.31,1.74-.2.53-.44.92-.71,1.18-.27.26-.53.44-.77.55-.24.11-.44.16-.61.16h-.07l-.25-.04c-.13-.02-.22-.04-.25-.06-.03-.02-.05-.07-.06-.15l-.04-.13-.14-.44-.03-.08.16-.06c.19.41.47.62.84.62.77,0,1.31-.83,1.61-2.49-.21.25-.41.43-.6.54-.19.11-.4.16-.63.16-.34,0-.61-.11-.81-.33-.2-.22-.3-.52-.3-.9,0-.52.18-.96.55-1.34.36-.37.8-.56,1.3-.56.17,0,.34.05.5.13.16.09.28.21.36.36.08.15.15.31.19.49.04.18.06.39.06.65ZM175.32,360.35l-.04.22h-.13c-.12,0-.32,0-.61-.01-.29,0-.45-.01-.49-.01-.13,0-.36,0-.68.01-.32,0-.48.01-.5.01h-.12l.02-.22h.23c.08-.01.14-.02.19-.03l.24-.04c.11-.02.18-.05.22-.08.04-.04.07-.11.08-.21l.66-4v-.1l-.09.04-.14.05-.25.1-.09.03-.71.34-.1.05-.06-.05.09-.43.09-.02.47-.13.26-.09.38-.11.55-.23.13-.05.08-.03.11.08-.16.77-.31,1.73-.05.26-.26,1.65v.18c-.01.13.04.21.16.26.11.04.35.07.71.07h.1ZM169.82,357.66c0-.25-.12-.37-.36-.37-.51,0-.87.5-1.07,1.5.45-.08.8-.23,1.06-.42.25-.2.38-.43.38-.71ZM170.38,357.55c0,.32-.15.59-.46.82-.31.22-.79.41-1.45.57l-.11.02c-.02.08-.04.17-.05.26,0,.09-.01.21-.01.34,0,.23.05.4.14.52.09.12.23.18.42.18.11,0,.24-.02.36-.06.13-.04.25-.1.37-.17l.4-.26.07-.05.06.14c-.57.5-1.08.75-1.53.75-.27,0-.48-.08-.63-.23-.15-.15-.22-.37-.22-.65,0-.14,0-.29.03-.45.02-.16.07-.38.14-.66.07-.28.16-.5.25-.64.16-.27.41-.51.75-.7.34-.2.63-.29.87-.29.19,0,.34.05.45.15.11.1.16.24.16.42ZM167.46,357.17c-.03.1-.06.19-.07.26-.01.07-.03.22-.06.45l-.04.22h-.17v-.13c0-.26-.03-.43-.1-.51s-.22-.11-.46-.11c-.26,0-.47.06-.63.19-.16.13-.27.32-.36.58-.08.26-.15.49-.19.7-.05.21-.07.38-.07.51,0,.61.21.92.62.92.28,0,.58-.11.9-.34l.22-.15.1-.07.06.16c-.56.53-1.08.79-1.57.79-.28,0-.5-.09-.65-.28-.15-.19-.23-.45-.23-.8,0-.25.03-.52.1-.8.06-.28.13-.48.2-.62.07-.13.16-.27.27-.39l.13-.15s.06-.05.11-.09c.05-.03.11-.08.19-.13.29-.17.5-.27.61-.32.12-.04.27-.07.46-.07.26,0,.46.06.61.18ZM164.22,359.94c-.21.2-.43.36-.64.49-.22.13-.37.2-.47.2-.07,0-.14-.03-.19-.08-.05-.06-.07-.13-.07-.21,0-.05,0-.11.03-.17l.48-1.97.05-.31.02-.25c0-.09-.04-.14-.13-.14-.15,0-.34.1-.59.3-.24.2-.44.41-.59.62-.15.22-.27.43-.35.63-.08.2-.15.4-.2.6-.05.2-.09.37-.12.51-.03.14-.05.25-.06.34l-.52.13-.04-.07.02-.08c.1-.35.17-.62.22-.82.05-.2.12-.54.21-1.02.09-.48.14-.79.14-.94,0-.13-.04-.2-.12-.2-.03,0-.21.09-.51.28l-.07.03-.06-.15.09-.06.18-.12c.31-.21.52-.34.64-.41.12-.06.22-.1.29-.1.05,0,.08.02.12.07.04.05.05.11.05.17,0,.08-.03.24-.08.48l-.19.86-.03.1c.16-.24.33-.46.51-.66.17-.2.36-.37.56-.53.2-.15.39-.28.58-.36.19-.09.35-.13.48-.13.14,0,.22.09.22.28,0,.12-.01.23-.05.35l-.52,2.12c-.02.09-.03.14-.03.16,0,.02,0,.06,0,.12,0,.08.04.13.12.13.05,0,.11-.02.17-.06.06-.04.17-.11.32-.22l.08-.07.07.15ZM160.13,359.94c-.24.2-.46.36-.67.48-.21.12-.36.19-.46.19-.07,0-.13-.03-.18-.09-.05-.06-.07-.13-.07-.22l.03-.15.59-2.38v-.09c0-.13-.03-.19-.11-.19l-.57.32-.06-.15.08-.05.66-.44c.18-.13.33-.19.45-.19s.16.09.16.28c0,.06,0,.13-.02.19-.01.06-.03.12-.04.18l-.45,1.96-.06.21-.03.13-.02.1c0,.07.04.1.12.1.05,0,.1-.02.16-.05.06-.03.17-.11.33-.23l.09-.07.07.15ZM160.33,355.58c0,.14-.04.26-.12.36-.08.1-.18.15-.31.15-.08,0-.15-.03-.2-.09-.05-.06-.08-.14-.08-.23,0-.08.02-.16.06-.24.04-.07.09-.14.16-.19.07-.05.13-.07.19-.07.19,0,.29.1.29.31ZM158.04,357.18l-.14.84h-.18v-.36c0-.09-.07-.18-.22-.25-.14-.07-.31-.11-.48-.11-.22,0-.4.06-.54.19-.14.13-.21.28-.21.47,0,.27.15.43.45.49l.51.1c.49.09.74.33.74.72,0,.19-.04.35-.11.48-.07.13-.25.3-.54.54-.28.23-.61.35-.96.35-.16,0-.29-.01-.38-.04-.1-.02-.24-.08-.42-.16l.07-.27.04-.23.02-.08.04-.31v-.09h.19v.63c.21.18.44.27.71.27s.46-.08.61-.23c.16-.15.23-.35.23-.58,0-.15-.04-.27-.11-.34-.07-.07-.27-.13-.57-.19-.31-.05-.54-.14-.7-.25-.16-.12-.24-.3-.24-.54,0-.26.14-.53.43-.8.28-.28.64-.42,1.06-.42.13,0,.24.01.35.04.1.02.23.07.38.15ZM153.44,357.29l-.08.37h-.8v.1s-.25,1.13-.25,1.13c-.04.23-.08.5-.11.8l-.02.25v.07c0,.08.03.12.1.12.05,0,.11-.02.17-.06.06-.04.23-.16.5-.35l.07-.05.07.13-.07.06-.21.16-.32.23c-.16.12-.3.22-.42.27-.11.06-.21.09-.28.09-.17,0-.26-.1-.26-.3v-.1s.51-2.56.51-2.56h-.63l.02-.1c.05,0,.11-.02.16-.04.05-.02.09-.04.13-.06l.2-.1.07-.03.1-.05.18-1.26c.12-.04.2-.08.26-.1.05-.02.12-.06.21-.11l.12-.06.08.11v.06s-.17.64-.17.64l-.15.67-.02.09.82-.05ZM150.78,359.94c-.21.2-.43.36-.64.49-.22.13-.37.2-.47.2-.07,0-.14-.03-.19-.08-.05-.06-.07-.13-.07-.21,0-.05.01-.11.03-.17l.47-1.97.05-.31.02-.25c0-.09-.04-.14-.13-.14-.15,0-.34.1-.59.3-.24.2-.44.41-.59.62-.15.22-.27.43-.35.63-.08.2-.15.4-.2.6-.05.2-.09.37-.12.51-.03.14-.05.25-.06.34l-.52.13-.04-.07.02-.08c.1-.35.17-.62.22-.82.05-.2.12-.54.21-1.02.09-.48.14-.79.14-.94,0-.13-.04-.2-.12-.2-.03,0-.21.09-.51.28l-.07.03-.06-.15.09-.06.18-.12c.31-.21.52-.34.64-.41.12-.06.22-.1.29-.1.04,0,.08.02.12.07.03.05.05.11.05.17,0,.08-.03.24-.08.48l-.19.86-.03.1c.16-.24.33-.46.51-.66.17-.2.36-.37.56-.53.2-.15.39-.28.58-.36.19-.09.35-.13.48-.13.14,0,.22.09.22.28,0,.12-.01.23-.04.35l-.52,2.12c-.02.09-.03.14-.03.16,0,.02,0,.06,0,.12,0,.08.04.13.12.13.06,0,.11-.02.17-.06.06-.04.17-.11.32-.22l.08-.07.07.15Z"/>
  <path class="cls-8" d="M137.71,270.56s5.96-4.35,18.62-6.35l-.57.85c-5.12,1.66-12.75,4.6-18.05,8.52v-3.01ZM137.71,270.56s-5.42-3.88-16.88-6.01c-.06-.01-.12-.02-.18-.04-.04,0-.08-.02-.13-.03,0,0-.03-.02-.03,0l-.05.84s.02,0,.03.01c.06.02.12.04.18.06.2.07.41.14.62.21.35.12.7.24,1.06.37,4.87,1.74,10.95,4.33,15.37,7.6v-3.01ZM138.73,265.63c1.04-2.42,6.33-8.17,7.5-8.21-.06.89-.11,1.77-.19,2.65-.01.13-.15.3-.28.37-1.82,1.06-3.49,2.35-5.13,3.65-.56.44-1.11.91-1.66,1.37-.08.06-.16.11-.24.17ZM136.33,265.6c-.45-.38-.91-.74-1.34-1.13-1.62-1.45-3.33-2.79-5.18-3.94-.29-.18-.41-.4-.4-.75.03-.69,0-1.39.02-2.08,0-.1.06-.21.09-.31.11.04.24.05.31.12.84.75,1.72,1.47,2.5,2.27,1.6,1.66,2.83,3.59,4,5.57.03.06.05.12.07.19-.02.02-.05.03-.07.05ZM125.09,258.53c4.27,2.08,8.12,4.74,11.37,8.23l-.06.1c-.06-.01-.13-.01-.17-.04-2.21-1.45-4.47-2.83-6.9-3.89-1.15-.5-2.32-.94-3.49-1.38-.34-.13-.59-.26-.62-.68-.05-.76-.16-1.51-.25-2.26.04-.03.08-.05.12-.08ZM138.58,266.77c3.48-3.47,7.5-6.16,11.99-8.24.03.1.06.16.05.21-.14.8-.28,1.6-.44,2.39-.03.12-.17.26-.29.3-1.22.48-2.45.92-3.66,1.42-2.57,1.08-5.03,2.37-7.34,3.94-.07.04-.14.07-.21.11-.03-.04-.06-.08-.09-.12ZM122.69,261.69c.23,0,.42-.03.59,0,2.92.65,5.69,1.68,8.27,3.2,1.37.81,2.69,1.72,4.03,2.59.1.07.18.17.24.31-.24-.09-.48-.17-.72-.27-1.36-.53-2.71-1.08-4.09-1.58-1.03-.37-2.08-.67-3.13-.99-.64-.19-1.29-.37-1.94-.53-.38-.09-.78-.12-1.18-.16-.46-.05-.93-.08-1.39-.16-.09-.02-.2-.21-.22-.33-.11-.56-.18-1.13-.28-1.7-.02-.11-.09-.21-.17-.39ZM139.1,267.71c.4-.28.8-.56,1.2-.83,2.44-1.64,5.02-3.04,7.79-4.02,1-.36,2.05-.61,3.07-.91.29-.08.58-.17.87-.23.15-.03.32,0,.48,0-.01.14-.01.28-.04.42-.13.57-.28,1.14-.4,1.71-.04.19-.12.27-.32.29-.65.07-1.29.15-1.94.25-.58.09-1.17.17-1.75.31-.66.16-1.32.35-1.97.57-1.75.6-3.5,1.23-5.24,1.85-.58.21-1.15.45-1.72.67-.02-.03-.03-.06-.05-.09ZM146.56,282.53c1.49,0,2.45-.74,2.45-2.43v-2.9h-1.47v2.95c0,.73-.38,1.08-.96,1.08s-.96-.36-.96-1.11v-2.91h-1.47v2.94c0,1.64.93,2.39,2.42,2.39ZM141.39,282.52c1.27,0,2.12-.64,2.12-1.7h0c0-.99-.75-1.38-1.95-1.64-.73-.16-.9-.27-.9-.51h0c0-.2.17-.35.52-.35.46,0,.99.18,1.47.52l.72-1.02c-.57-.46-1.26-.7-2.15-.7-1.26,0-2.03.7-2.03,1.67h0c0,1.09.86,1.41,1.97,1.66.71.16.88.28.88.5v.02c0,.22-.21.36-.6.36-.61,0-1.18-.22-1.7-.63l-.81.96c.64.58,1.53.87,2.45.87ZM135.37,280.37l.59-1.49.58,1.49h-1.17ZM133.04,282.43h1.53l.37-.93h2.02l.38.93h1.55l-2.23-5.27h-1.4l-2.23,5.27ZM129.57,280.37l.59-1.49.58,1.49h-1.17ZM127.25,282.43h1.53l.37-.93h2.02l.38.93h1.55l-2.23-5.27h-1.4l-2.23,5.27ZM136.77,243.11c-.14-.64-.25-1.3-.44-1.93-.32-1.06.02-1.89.85-2.59-.44,1.02-.35,2.01-.04,3.04.14.45-.11,1.02-.18,1.53-.06-.02-.13-.04-.19-.06ZM139.46,262.69h-3.84c-.05-.16-.09-.32-.14-.48-.2-.61.02-1.37-.73-1.79-.16-.09-.13-.5-.2-.82h6.1c-.39,1.02-.77,2-1.18,3.09ZM137.61,254.5c1.57,0,3.14-.03,4.71.02.33.01.65.3.98.46-.2.28-.33.67-.6.82-1.04.6-1.79,1.43-2.21,2.54-.2.52-.49.64-1,.63-1.27-.03-2.54-.03-3.81,0-.45,0-.72-.09-.9-.55-.46-1.17-1.23-2.08-2.37-2.68-.22-.12-.48-.57-.41-.72.11-.24.49-.48.76-.49,1.62-.04,3.24-.02,4.86-.02ZM136.55,258.35c.07-.05.14-.09.21-.14-.11-.55-.2-1.12-.34-1.66-.26-1.03-.5-1.15-1.46-.87.52.88,1.06,1.78,1.59,2.67ZM135.87,253.42c-3.2-.43-4.29-4.35-2.14-7.68.21.54.41,1.05.55,1.41.94-.98,1.85-1.98,2.81-2.92,1.04-1.02,1.27-2.26,1.14-3.63-.02-.17-.06-.34-.13-.7.97,1.07,1.43,2.14,1.39,3.41,0,.3-.04.6-.09.89-.34,2.32.06,3,1.67,4.88-.38-1.54-1.12-3.13.69-4.49-.57,1.26.07,2.14.58,3.09,1.18,2.25.02,4.99-2.34,5.68-.29.09-.61.1-1.06.17.32-.42.56-.7.76-1,.74-1.12.48-2.16-.67-2.84-.36-.21-.81-.38-1.05-.69-.28-.37-.37-.87-.55-1.33-2.35.71-3.05,3.07-1.56,5.76ZM164.57,280.71c-.2-.13-.36-.24-.54-.36-.06.15-.1.23-.11.31-.09.7-.16,1.41-.27,2.11-.03.17-.17.32-.23.49-.12.34-.25.67-.32,1.02-.07.36-.05.73-.11,1.09-.06.29-.18.57-.28.86-.06.18-.12.36-.17.55-.09.31-.19.62-.25.93-.13.66-.23,1.34-.37,2-.06.3-.36.52-.29.88.01.08-.12.19-.2.27-.19.17-.41.32-.59.5-.18.18-.34.3-.62.28-.17-.01-.37.09-.51.2-.25.18-.76.25-.94.02-.33-.43-.82-.71-.99-1.27-.09-.31-.16-.61-.06-.92.09-.28.01-.51-.1-.77-.16-.36-.21-.77-.3-1.16-.02-.09-.02-.19-.04-.28-.05-.22.02-.37.21-.5.16-.12.28-.29.4-.45.1-.12.18-.25.27-.38.02-.03.07-.06.08-.09.13-.63.39-1.29.11-1.9-.18-.38-.13-.73-.13-1.08,0-.63.01-1.26.31-1.84.17-.34.5-.5.84-.61.5-.17,1.01-.3,1.52-.44.19-.05.34-.1.4-.34.02-.11.19-.19.29-.28.1-.1.24-.19.29-.31.11-.31.14-.65.28-.94.11-.22.3-.44.52-.54.31-.15.4-.36.35-.65-.07-.38.28-.4.45-.54.18-.15.31.07.4.22.17.26.34.53.51.79.19.31.28.62.06.97-.04.06.07.23.13.34.07.13.22.25.22.37,0,.44-.05.87-.09,1.31,0,.08-.09.15-.11.18ZM112.14,256.96c-.12.57-.61.43-.97.49-.33.06-.63.1-.82.42-.05.08-.16.15-.26.16-.59.06-1.18.12-1.77.15-.25.02-.42-.13-.55-.36-.05-.09-.2-.17-.31-.18-.9-.12-1.75.12-2.57.43-.52.19-1.02.45-1.52.69-.31.15-.61.14-.89-.03-1.23-.76-2.44-1.55-3.66-2.31-.76-.47-1.39-1.08-1.95-1.77-.17-.21-.25-.49-.39-.71-.17-.26-.36-.51-.54-.77-.09-.13-.2-.25-.26-.39-.19-.46-.5-.81-.89-1.12-.17-.14-.3-.35-.41-.54-.2-.35-.4-.64-.86-.69-.14-.01-.25-.24-.37-.38-.03-.04-.02-.1-.05-.15-.21-.37-.23-.74-.07-1.14.04-.09,0-.24-.06-.33-.19-.28-.4-.55-.61-.82-.04-.05-.12-.07-.19-.09-.18-.06-.36-.11-.55-.17.04-.28.15-.42.44-.49.35-.08.67-.27,1-.43.07-.03.15-.18.13-.22-.12-.25.03-.45.08-.68.11-.47.17-.96.25-1.44,0-.05,0-.11.02-.16.19-.46.28-.9-.08-1.33-.06-.07-.02-.24-.03-.36-.04-.42-.04-.86-.13-1.27-.03-.15-.29-.24-.48-.33-.15-.51-.29-1.05-.11-1.6.03-.08.12-.17.2-.2.32-.1.49-.33.65-.6.23-.4.3-.84.41-1.27.06-.25.24-.51.44-.68.36-.31.61-.63.73-1.12.09-.38.28-.82.74-.99.09-.03.17-.15.22-.24.29-.48.57-.97.85-1.46.16-.28.41-.38.71-.38.47,0,.83-.15,1.11-.58.2-.3.54-.51.81-.77.3-.29.59-.59.87-.9.16-.18.17-.38,0-.59-.39-.51-.39-.92-.05-1.47.16-.26.23-.56.39-.81.27-.42.57-.82.86-1.23.26-.37.65-.48,1.07-.58.72-.17,1.29-.67,1.34-1.35.03-.37.18-.74.29-1.11.07-.23.59-.28.83-.1.26.2.51.4.78.59.18.12.38.18.58.01.05-.04.14-.07.2-.07.62.03,1.23.04,1.85.1.39.04.51-.01.71-.37.23-.4.65-.53,1.07-.54.32-.01.53-.17.79-.32.37-.21.8-.36,1.22-.44.56-.11,1.14-.13,1.71-.21.17-.02.34-.12.48-.22.46-.3,1.26-.26,1.72,0,.19.11.51.02.76-.03.12-.02.22-.17.34-.21.13-.05.32-.12.42-.07.22.12.42.11.63.01.18-.08.33-.11.52.03.1.07.29.07.42.04.25-.05.49-.16.74-.23.18-.05.36-.08.54-.13.09-.02.18-.05.25-.1.36-.23.67-.12.78.29,0,.03.02.06.02.09.09.4.25.45.55.18.13-.11.3-.29.4-.1.09.16.04.44-.04.62-.06.14-.28.21-.4.34-.28.27-.23.61.11.79.47.25.52.86.04,1.09-.37.18-.45.53-.62.83-.13.24.18.7.5.82.07.03.14.04.21.06.46.13.48.15.48.52.26.14.48.24.69.38.28.19.76.22,1.03,0,.23-.19.47-.18.71-.09.29.12.55.29.83.44.05.02.09.06.14.07.51.14.86.38,1.04.95.13.41.57.68,1.04.62.92-.11,1.63.36,2.35.8.15.09.31.19.47.24.27.09.54.09.73-.18.01-.02.03-.03.04-.05.48-.37.51-.79.23-1.32-.27-.52-.16-.76.33-1.05.18-.11.35-.24.53-.33.63-.32,1.29-.17,1.94-.09.03,0,.06.02.09.04.58.56,1.36.69,2.06,1.01.13.06.25.16.34.27.18.24.46.35.71.22.37-.2.72-.3,1.09.03.1.09.27.14.41.13.65-.02,1.19.27,1.73.56.37.2.62.14.88-.2.02-.02.04-.07.06-.07.64-.07,1.11-.74,1.8-.58.35.08.67.31,1,.47.1.05.19.16.28.16.63.01,1.25,0,1.92,0,.05.48.11.97.16,1.45.08.81.16,1.63.22,2.44.02.34-.11.44-.39.38-.07-.02-.15-.07-.19-.14-.29-.4-.59-.79-.84-1.21-.2-.35-.33-.74-.5-1.11-.04-.1-.11-.18-.17-.27-.04,0-.08.01-.12.02,0,.22-.04.46,0,.67.09.42.18.85.6,1.08.04.02.08.07.11.11.18.24.35.48.52.73.22.32.44.64.38,1.06-.01.1.05.22.11.32.16.26.36.49.52.75.28.46.54.94.8,1.41.15.27.28.55.39.83.04.1-.04.23-.06.35-.05.24-.09.49-.15.76.43.01.57.27.7.51.08.16.16.23.35.23.26,0,.43.13.44.42,0,.11,0,.23.02.34.02.22.1.41.35.45.34.06.3.27.22.52-.07.22-.13.45-.19.68-.01.06-.01.14.02.18.24.33.34.69.34,1.09,0,.51.52.61.78.92.09.1.17.22.25.33.02.03.03.09.05.1.43.13.45.51.51.85.06.33.1.66.13,1,.03.34.25.53.49.73.18.15.4.29.5.49.16.32.41.47.73.52.38.06.64.27.84.59.15.24.33.45.52.66.06.06.19.09.29.08.21-.02.29.06.37.25.09.21.26.39.39.58.15.21.35.4.44.63.07.18.01.42,0,.63-.04.01-.07.02-.11.03.1.07.21.13.29.22.16.17.34.34.45.54.22.4.66.63,1.1.52.07-.02.17-.04.19-.09.12-.33.42-.25.65-.27.23-.02.47.03.69-.02.21-.04.42-.13.61-.25.38-.24.8-.21,1.21-.23.46-.01.93.02,1.36-.09.4-.1.76-.34,1.14-.53.46-.24.64-.14.64.38,0,.45-.04.91.32,1.32-.21.11-.37.19-.54.28-.05.25-.05.56-.16.82-.13.34-.34.66-.53.98-.03.06-.12.1-.15.16-.24.52-.53,1-.96,1.39-.08.08-.07.28-.07.42,0,.38-.13.68-.36.97-.38.5-.69,1.05-1.09,1.53-.36.44-.8.82-1.21,1.23-.28.29-.55.59-.85.87-.17.16-.36.34-.57.43-1.08.48-1.8,1.39-2.61,2.19-.17.17-.33.35-.48.54-.15.2-.28.41-.4.63-.16.32-.55.52-.83.77-.06.05-.14.11-.14.17,0,.24-.15.34-.35.37-.3.05-.42.23-.53.5-.1.27-.3.51-.45.76-.21.34-.55.66-.62,1.04-.09.45-.24.85-.49,1.22-.04.06.02.25.09.33.13.15.29.27.45.4.31.25.45.68.25,1.01-.28.45-.22.93-.03,1.32.17.36.25.71.31,1.09.02.15.26.29.42.39.18.11.25.25.25.46,0,.45.04.9.06,1.35,0,.1,0,.23.06.31.23.34.1.68.04,1.03-.04.28-.08.56-.1.84,0,.1.03.24.1.31.2.24.19.5.11.77-.08.25-.19.48-.29.73,0,0-.02.02-.02.03.18.66-.47.94-.69,1.42-.21.46-.78.73-1.32.72-.44,0-.68.19-.97.48-.6.6-1.27,1.13-1.9,1.7-.37.34-.73.69-1.07,1.06-.22.24-.19.5.05.71.33.29.53.6.53,1.1,0,.95.12,1.9.17,2.86,0,.11-.04.27-.12.35-.34.3-.72.49-1.17.62-.59.16-1.14.44-1.69.71-.27.14-.24.35.04.48.29.14.37.34.25.64-.03.06-.02.14-.02.22,0,.16-.02.28-.14.44-.14.18-.11.48-.17.72-.09.38-.16.76-.29,1.12-.05.13-.22.24-.36.32-.65.33-1.54.96-1.5,1.91,0,.13-.05.29-.13.4-.82,1.15-1.83,2.13-2.86,3.08-.08.08-.17.16-.25.23-.37.35-.7.67-1.3.69-.52.01-1.02.34-1.55.44-.36.07-.76,0-1.14-.01-.2,0-.41-.07-.59-.02-.23.07-.43.08-.66.01-.28-.08-.6-.15-.8.21-.03.06-.16.08-.25.09-.58.04-1.14.11-1.67.38-.43.22-.89.05-1.21-.33-.41-.48-.84-.94-1.23-1.43-.34-.43-.31-.78.05-1.18.17-.19.17-.62.03-.88-.52-.94-1.05-1.89-1.56-2.83-.05-.1-.12-.21-.12-.32.03-.56-.39-.81-.72-1.13-.08-.08-.17-.16-.22-.26-.36-.65-.69-1.33-.87-2.06-.1-.4,0-.84-.04-1.25-.02-.28-.11-.56-.19-.84-.06-.23-.15-.46-.22-.68-.02-.06-.01-.14-.05-.17-.27-.23-.19-.51-.09-.75.18-.41.08-.81.02-1.2-.03-.17-.2-.34-.35-.44-.23-.15-.35-.33-.42-.59-.28-1-.52-2.03-1.27-2.83-.17-.18-.36-.35-.56-.49-.15-.11-.25-.22-.24-.43.02-.47,0-.94,0-1.42,0-.51.14-.99.43-1.42.37-.55.48-1.17.39-1.8-.09-.58.13-.96.54-1.32.27-.23.48-.51.72-.77.32-.34.28-.77.22-1.16-.03-.2-.27-.38-.42-.56-.02-.02-.07-.04-.07-.06-.1-.43-.28-.81-.65-1.1-.03-.03.03-.28.12-.35.57-.49.55-.47.27-1.18-.17-.43-.42-.78-.71-1.13-.31-.37-.51-.76-.37-1.29.11-.42-.04-.81-.43-1.09-.29-.21-.51-.47-.62-.84-.05-.16-.23-.34-.39-.39-.69-.24-1.14-.77-1.64-1.24-.44-.42-.28-.98-.22-1.49.05-.43.02-.88.31-1.26.09-.11.04-.32.05-.49.01-.37.02-.73.03-1.1,0-.22.01-.43.22-.59.08-.06.1-.23.09-.35-.04-.58-.11-1.08-.64-1.54-.6-.52-1.23-.27-1.83-.37-.45-.07-.92,0-1.38.03-.55.04-.97-.25-1.11-.79-.04-.13-.07-.26-.11-.39-.13-.47-.47-.74-.95-.75-.4,0-.79,0-1.16-.21-.1-.06-.32.06-.47.11-.17.06-.32.18-.49.21-.31.05-.62.05-.95.07Z"/>
</svg>